<svg width="175" height="175" viewBox="0 0 175 175" fill="none" xmlns="http://www.w3.org/2000/svg">
<mask id="mask0_362_3112" style="mask-type:alpha" maskUnits="userSpaceOnUse" x="0" y="0" width="175" height="175">
<rect width="175" height="175" fill="#C4C4C4"/>
</mask>
<g mask="url(#mask0_362_3112)">
<path d="M86.6624 -1.35396L87.2363 88.552L96.5599 53.574L89.203 -2.11135L86.6624 -1.35396Z" fill="#D0D2D3"/>
<path opacity="0.3" d="M86.6624 -1.35396L87.2363 88.552L89.7339 79.1833L89.203 -2.11135L86.6624 -1.35396Z" fill="white"/>
<path d="M89.2031 -2.11134L86.6625 -1.35395L86.6906 3.047L89.8222 2.11353L89.2031 -2.11134Z" fill="#FFD420"/>
<path d="M160.571 139.084L87 87.4045L110.085 115.287L159.714 141.593L160.571 139.084Z" fill="#D0D2D3"/>
<path opacity="0.3" d="M160.571 139.084L87 87.4045L93.1831 94.8731L159.714 141.593L160.571 139.084Z" fill="white"/>
<path d="M159.714 141.593L160.571 139.084L156.969 136.554L155.913 139.647L159.714 141.593Z" fill="#FFD420"/>
<path d="M152.153 137.585L153.368 134.025L149.767 131.495L148.372 135.581L152.153 137.585Z" fill="#FFD420"/>
<path d="M7.20957 127.483L87.6201 87.2639L52.1203 94.3456L5.40804 125.538L7.20957 127.483Z" fill="#D0D2D3"/>
<path opacity="0.3" d="M7.20957 127.483L87.6201 87.2639L78.1115 89.1604L5.40804 125.538L7.20957 127.483Z" fill="white"/>
<path d="M5.40798 125.538L7.2095 127.483L11.1456 125.514L8.92516 123.116L5.40798 125.538Z" fill="#FFD420"/>
<path d="M12.525 120.785L15.0815 123.546L19.0178 121.577L16.0837 118.409L12.525 120.785Z" fill="#FFD420"/>
</g>
</svg>
