<svg width="108" height="99" viewBox="0 0 108 99" fill="none" xmlns="http://www.w3.org/2000/svg">
<path d="M0.695312 65.0273V68.2636L5.44603 71.0056L6.48226 63.481L0.695312 65.0273Z" fill="#D3CAC2"/>
<path d="M107.22 65.0275V68.2637L101.034 65.8086L102.086 62.0623L107.22 65.0275Z" fill="#D3CAC2"/>
<path d="M107.22 68.2639L53.9576 99L0.695312 68.2639L53.9576 37.5117L107.22 68.2639Z" fill="#BFB5AC"/>
<path d="M30.6503 82.3087V85.545L0.695312 68.2638V65.0276L30.6503 82.3087Z" fill="#8BB8E8"/>
<path d="M39.085 87.187V90.4232L42.6879 92.4957V89.2595L39.085 87.187Z" fill="#EAEAEA"/>
<path d="M46.9102 91.6668V94.9349L53.9565 99.0001L84.2782 81.4958V78.2595L53.9565 95.7638L46.9102 91.6668Z" fill="#EDD8BC"/>
<path d="M91.0391 74.3535V77.5898L94.6738 75.5014V72.2651L91.0391 74.3535Z" fill="#EAEAEA"/>
<path d="M98.8838 69.8421V73.0624L107.221 68.2638V65.0276L98.8838 69.8421Z" fill="#3C4870"/>
<path d="M107.22 65.0275L53.9576 95.7637L0.695312 65.0275L53.9576 34.2754L107.22 65.0275Z" fill="#D3CAC2"/>
<path d="M0.695312 65.0275L30.6503 82.3246C30.6503 82.3246 48.8083 77.2391 41.7938 62.8116C36.5329 52.0029 43.946 42.5493 60.8923 38.2768L53.9576 34.2754L0.695312 65.0275Z" fill="#A3CCFF"/>
<path d="M67.1246 73.1418L84.2782 78.2592L53.9565 95.7636L46.9102 91.6665L67.1246 73.1418Z" fill="#FFE9C7"/>
<path d="M67.6371 42.2942C64.7516 43.458 59.6023 47.3797 57.3545 51.7319C54.5168 57.2159 59.1719 62.6362 61.1646 64.5971L39.085 87.1869L42.6879 89.2593L64.9748 66.4623L91.0559 74.3536L94.6907 72.2652L65.7241 63.4971C64.4328 62.2855 59.5864 57.3116 62.0574 52.5449C64.098 48.5913 69.6617 44.9087 71.1762 44.3348L67.6371 42.2942Z" fill="white"/>
<path d="M77.9022 48.0969C77.9022 48.0969 59.8399 55.5737 79.7037 63.1781C92.0587 67.9128 98.8819 69.8259 98.8819 69.8259L107.22 65.0114L77.9022 48.0969Z" fill="#4E587C"/>
<path d="M64.9733 66.4624L59.3617 72.2015C63.1718 71.8189 66.8066 70.7986 69.7559 69.0928C70.2022 68.8377 70.6327 68.5667 71.0153 68.2957L64.9733 66.4624ZM63.1399 50.8392C62.7095 51.3972 62.3428 51.9711 62.0399 52.545C59.5848 57.3116 64.4153 62.2856 65.7066 63.4971L73.6138 65.8884C74.7935 64.4218 75.3834 62.8276 75.3834 61.2334C70.5689 58.603 69.8037 56.0522 70.6805 53.916C70.3776 53.7088 70.0588 53.5174 69.724 53.3261C67.795 52.2102 65.5472 51.3812 63.1399 50.8392ZM56.0935 50.074C51.1515 50.074 46.2095 51.158 42.4472 53.3421C41.6023 53.8363 40.837 54.3624 40.1834 54.9044C39.9284 57.4073 40.4544 60.0696 41.7936 62.8116C43.037 65.3624 43.4834 67.6261 43.3878 69.6029C46.3689 71.1174 49.9559 71.9942 53.6704 72.2652L61.1631 64.5971C59.1704 62.6363 54.5153 57.216 57.353 51.7319C57.6399 51.1899 57.9588 50.6638 58.3095 50.1377C57.5762 50.0899 56.8428 50.074 56.0935 50.074Z" fill="#B4ACA5"/>
<path d="M40.1836 54.9045C35.0025 59.2408 35.7517 65.235 42.4474 69.0929C42.7503 69.2683 43.0691 69.4437 43.388 69.6031C43.4836 67.6103 43.0213 65.3625 41.7938 62.8118C40.4546 60.0698 39.9285 57.4074 40.1836 54.9045Z" fill="#8BAED9"/>
<path d="M58.311 50.1377C57.9443 50.6638 57.6255 51.1899 57.3545 51.7319C54.5168 57.2159 59.1719 62.6362 61.1646 64.5971L53.6719 72.2652C54.4849 72.329 55.282 72.3609 56.0951 72.3609C57.1951 72.3609 58.2791 72.313 59.3632 72.2014L64.9748 66.4623L71.0168 68.2956C72.0849 67.5464 72.9458 66.7333 73.6313 65.8884L65.724 63.4971C64.4327 62.2855 59.5864 57.3116 62.0574 52.5449C62.3603 51.971 62.7269 51.3971 63.1574 50.8391C61.5791 50.4725 59.953 50.2493 58.311 50.1377Z" fill="#D9D9D9"/>
<path d="M70.7132 53.9319C69.8205 56.0681 70.5857 58.6029 75.4161 61.2493C75.4161 58.6348 73.8379 56.0203 70.7132 53.9319Z" fill="#56659B"/>
<path d="M58.1341 0C45.6196 0 35.4805 10.1391 35.4805 22.6536C35.4805 41.5449 58.1341 56.6579 58.1341 56.6579C58.1341 56.6579 80.7877 41.5449 80.7877 22.6536C80.7877 10.1391 70.6485 0 58.1341 0ZM58.1341 31.2304C52.5384 31.2304 48.0109 26.6869 48.0109 21.1072C48.0109 15.5116 52.5384 10.984 58.1341 10.984C63.7297 10.984 68.2572 15.5275 68.2572 21.1072C68.2732 26.6869 63.7297 31.2304 58.1341 31.2304Z" fill="#071221"/>
<path d="M56.2854 2.05664C43.771 2.05664 33.6318 12.1958 33.6318 24.7102C33.6318 43.6015 56.2854 58.7145 56.2854 58.7145C56.2854 58.7145 78.939 43.5856 78.939 24.7102C78.939 12.1958 68.7999 2.05664 56.2854 2.05664ZM56.2854 33.2711C50.6898 33.2711 46.1623 28.7436 46.1623 23.1479C46.1623 17.5523 50.7057 13.0247 56.2854 13.0247C61.8811 13.0247 66.4086 17.5523 66.4086 23.1479C66.4245 28.7436 61.8811 33.2711 56.2854 33.2711Z" fill="#4E587C"/>
</svg>
