<svg width="78" height="95" viewBox="0 0 78 95" fill="none" xmlns="http://www.w3.org/2000/svg">
<path fill-rule="evenodd" clip-rule="evenodd" d="M63.5491 14.9665C63.5491 9.60424 60.0503 6.98016 55.7909 9.14788L17.4945 28.2771C13.1971 30.4068 9.73633 36.5296 9.73633 41.8919V87.5282C9.73633 92.8904 13.2351 95.5145 17.4945 93.3468L55.7529 74.2176C60.0503 72.0879 63.5111 65.965 63.5111 60.6028V14.9665H63.5491Z" fill="#4E587C"/>
<path fill-rule="evenodd" clip-rule="evenodd" d="M12.2838 93.4612L2.92833 88.7835C1.14091 87.9088 0 85.741 0 82.6606V37.0243C0 31.6621 3.49878 25.5772 7.75817 23.4095L46.0546 4.28029C47.8801 3.36756 49.5914 3.32953 50.9225 3.97605L60.7723 8.88195C59.4412 8.15937 57.6919 8.15937 55.7903 9.11013L17.4939 28.2774C13.1965 30.4071 9.73574 36.5299 9.73574 41.8922V87.5285C9.73574 90.3807 10.7245 92.4724 12.2838 93.4612Z" fill="#071221"/>
<path fill-rule="evenodd" clip-rule="evenodd" d="M58.7199 8.38721C61.5341 8.42524 63.5497 10.8972 63.5497 14.9664V15.727L35.9778 68.8172L17.4951 51.7417L23.3518 40.4847L36.0158 52.16L58.7199 8.38721Z" fill="#646E8E"/>
<path fill-rule="evenodd" clip-rule="evenodd" d="M31.8693 44.7824L26.4309 42.0442L20.6123 53.3011L26.0506 56.0393L31.8693 44.7824Z" fill="#D8E4EB"/>
<path fill-rule="evenodd" clip-rule="evenodd" d="M39.095 70.3386L20.6123 53.301L26.0506 56.0392L44.5333 73.0767L39.095 70.3386Z" fill="#7A92A3"/>
<path fill-rule="evenodd" clip-rule="evenodd" d="M66.7039 0.477051L72.1422 3.21523L44.5323 56.4195L39.8926 52.1601L66.7039 0.477051Z" fill="#D8E4EB"/>
<path fill-rule="evenodd" clip-rule="evenodd" d="M44.5335 56.4196L72.1434 3.21533L78.0001 8.57759L44.5335 73.0769L26.0508 56.0393L31.8694 44.7824L44.5335 56.4196Z" fill="#F7FCFF"/>
</svg>
