<svg width="13" height="13" viewBox="0 0 13 13" fill="none" xmlns="http://www.w3.org/2000/svg">
<path d="M12.3009 5.23308C11.3785 1.79062 8.58799 -0.452683 6.06816 0.222496C5.25712 0.450234 4.54559 0.942778 4.04688 1.62171L4.04675 1.62131L4.03923 1.63192C3.97495 1.71644 3.91311 1.80372 3.85375 1.89383L0.744922 6.28472C0.54191 6.57145 0.403589 6.89883 0.339518 7.24425C0.275448 7.58968 0.287154 7.94491 0.373835 8.28537C0.460516 8.62582 0.620098 8.94338 0.841553 9.21611C1.06301 9.48884 1.34105 9.71021 1.65646 9.86494L6.22949 12.1085C7.22993 12.7364 8.34315 12.9742 9.40847 12.6887C11.9283 12.0135 13.2233 8.67555 12.3009 5.23308Z" fill="#D0D2D3"/>
<path opacity="0.3" d="M1.28906 6.32206L4.63195 1.90156C4.87937 1.57215 5.20526 1.30989 5.57994 1.1386C6.23645 0.841664 6.74292 0.811388 7.07739 1.08683C7.17039 1.17067 7.243 1.27465 7.28965 1.39086C7.33629 1.50706 7.35576 1.63239 7.34654 1.75727C7.33732 1.88215 7.29967 2.00325 7.23646 2.11134C7.17325 2.21943 7.08616 2.31167 6.98185 2.38095L1.28906 6.32206Z" fill="white"/>
<path opacity="0.2" d="M1.91992 9.29093L7.16006 11.7545C7.55302 11.9405 7.98951 12.015 8.42192 11.9699C8.85432 11.9248 9.26605 11.7619 9.61221 11.4989C10.3371 10.9441 10.9363 10.1064 11.1502 9.35844C11.1804 9.25016 11.1838 9.13614 11.1601 9.02625C11.1363 8.91637 11.0862 8.81392 11.0139 8.72778C10.9417 8.64164 10.8495 8.5744 10.7455 8.53188C10.6414 8.48936 10.5285 8.47283 10.4167 8.48373L1.91992 9.29093Z" fill="#242B52"/>
</svg>
