<svg width="34" height="40" viewBox="0 0 34 40" fill="none" xmlns="http://www.w3.org/2000/svg">
<path d="M32 16.666C32 28.3327 17 38.3327 17 38.3327C17 38.3327 2 28.3327 2 16.666C2 12.6878 3.58035 8.87246 6.3934 6.05941C9.20644 3.24637 13.0218 1.66602 17 1.66602C20.9782 1.66602 24.7936 3.24637 27.6066 6.05941C30.4196 8.87246 32 12.6878 32 16.666Z" stroke="#071221" stroke-width="2.5" stroke-linecap="round" stroke-linejoin="round"/>
<path d="M17 21.666C19.7614 21.666 22 19.4274 22 16.666C22 13.9046 19.7614 11.666 17 11.666C14.2386 11.666 12 13.9046 12 16.666C12 19.4274 14.2386 21.666 17 21.666Z" stroke="#071221" stroke-width="2.5" stroke-linecap="round" stroke-linejoin="round"/>
</svg>
