<svg width="453" height="282" viewBox="0 0 453 282" fill="none" xmlns="http://www.w3.org/2000/svg">
<path d="M311.86 254.262L316.699 257.052L316.118 260.108L309.361 256.212C309.992 255.339 310.859 254.662 311.86 254.262Z" fill="#5C5E67"/>
<path d="M308.806 257.045C308.973 256.756 309.158 256.478 309.361 256.212L316.118 260.108L315.902 261.245L313.606 263.164L307.88 259.863C307.981 258.868 308.297 257.906 308.806 257.045Z" fill="#7D7F86"/>
<path d="M313.606 263.164L311.162 264.041L309.195 262.884C309.136 262.858 309.078 262.829 309.022 262.797C308.572 262.468 308.225 262.017 308.023 261.497C307.82 260.977 307.771 260.41 307.88 259.863L313.606 263.164Z" fill="#5C5E67"/>
<path d="M310.041 263.363C309.59 263.034 309.244 262.583 309.041 262.063C308.839 261.543 308.789 260.976 308.898 260.429C309 259.434 309.316 258.473 309.824 257.611C309.991 257.322 310.177 257.044 310.379 256.779C311.011 255.905 311.877 255.229 312.878 254.828C313.196 254.695 313.539 254.632 313.883 254.642C314.227 254.652 314.566 254.735 314.876 254.886L314.451 254.636C314.138 254.486 313.797 254.403 313.45 254.394C313.103 254.386 312.758 254.451 312.438 254.586C311.437 254.987 310.571 255.663 309.939 256.537C309.737 256.802 309.551 257.08 309.385 257.369C308.876 258.231 308.56 259.192 308.458 260.187C308.349 260.734 308.399 261.301 308.601 261.821C308.804 262.341 309.151 262.792 309.601 263.121C309.657 263.154 309.715 263.182 309.774 263.208C309.774 263.208 310.097 263.396 310.041 263.363Z" fill="#3F414B"/>
<path d="M331.972 259.452V274.194L324.573 278.467V263.745L331.972 259.452Z" fill="#A5A6AA"/>
<path d="M309.757 257.6V269.914L324.573 278.466V266.172C324.572 265.797 324.622 265.424 324.72 265.062L309.915 256.465C309.811 256.834 309.757 257.216 309.757 257.6Z" fill="#D6D6D8"/>
<path d="M310.924 254.699C310.448 255.196 310.102 255.802 309.915 256.465L324.72 265.062C324.903 264.398 325.246 263.79 325.72 263.29L310.924 254.699Z" fill="#E7E7E8"/>
<path d="M326.663 262.536L331.972 259.452L317.163 250.925L311.875 253.949C311.523 254.152 311.203 254.405 310.924 254.7L325.72 263.291C325.996 262.995 326.314 262.741 326.663 262.536Z" fill="#D6D6D8"/>
<path d="M328.712 224.838L328.8 257.052L323.258 260.216L323.819 227.678L328.712 224.838Z" fill="#515567"/>
<path d="M323.819 227.678L314.025 222V253.951C314.025 254.413 314.147 254.868 314.379 255.269C314.61 255.669 314.943 256.002 315.343 256.233L322.217 260.202C322.379 260.296 322.563 260.345 322.751 260.345C322.938 260.345 323.122 260.296 323.285 260.202C323.447 260.108 323.582 259.974 323.676 259.811C323.77 259.649 323.819 259.465 323.819 259.277V227.678Z" fill="#7F828D"/>
<path d="M315.498 261.122L307.279 265.86L308.266 271.051L319.742 264.435C318.669 262.951 317.198 261.802 315.498 261.122Z" fill="#AEAFB3"/>
<path d="M312.091 261.226L312.08 261.207L306.956 264.163L307.279 265.861L315.498 261.122C314.956 260.895 314.371 260.787 313.783 260.805C313.196 260.823 312.619 260.967 312.091 261.226Z" fill="#A5A6AA"/>
<path d="M320.684 265.848C320.401 265.357 320.086 264.885 319.741 264.435L308.266 271.051L308.633 272.982L312.533 276.241L322.257 270.634C322.084 268.944 321.548 267.311 320.684 265.848Z" fill="#A5A6AA"/>
<path d="M312.533 276.241L315.264 278.524L320.023 275.765C320.123 275.72 320.221 275.672 320.317 275.617C321.8 274.766 322.451 272.867 322.257 270.634L312.533 276.241Z" fill="#B0B0B4"/>
<path d="M315.631 268.756C313.344 264.79 309.471 262.733 306.981 264.163C304.491 265.592 304.326 269.966 306.613 273.932C308.627 277.422 312.459 280.134 315.264 278.524C317.754 277.095 317.919 272.721 315.631 268.756Z" fill="#D6D6D8"/>
<path d="M313.451 277.805C311.583 277.805 309.143 275.925 307.649 273.334C306.44 271.437 305.985 269.156 306.374 266.94C306.531 266.224 306.963 265.599 307.577 265.199C307.936 264.998 308.343 264.896 308.754 264.903C310.683 264.903 313.085 266.733 314.596 269.352C315.806 271.25 316.261 273.531 315.872 275.747C315.714 276.463 315.282 277.088 314.668 277.488C314.299 277.701 313.878 277.811 313.451 277.805Z" fill="#343640"/>
<path d="M313.393 273.063C312.768 272.942 312.18 272.676 311.677 272.287C311.173 271.897 310.767 271.396 310.491 270.822C309.936 269.929 309.704 268.873 309.831 267.829C309.538 268.029 309.331 268.332 309.251 268.678C309.057 269.786 309.284 270.927 309.889 271.876C310.165 272.449 310.57 272.949 311.074 273.338C311.578 273.726 312.166 273.991 312.79 274.111C313.003 274.114 313.214 274.059 313.399 273.952C313.705 273.752 313.922 273.44 314 273.082C314.017 273.021 314.014 272.949 314.026 272.885L314.002 272.9C313.817 273.008 313.607 273.064 313.393 273.063Z" fill="#262833"/>
<path d="M314.026 272.885C314.014 272.885 314.014 272.9 314.002 272.9C313.818 273.008 313.607 273.064 313.393 273.063C312.769 272.94 312.182 272.673 311.679 272.284C311.175 271.895 310.768 271.395 310.491 270.822C309.933 269.93 309.7 268.873 309.831 267.829C309.831 267.817 309.857 267.808 309.857 267.808C310.036 267.71 310.238 267.661 310.442 267.665C310.613 267.663 310.783 267.692 310.944 267.748C311.117 267.796 311.285 267.86 311.446 267.94C312.254 268.395 312.917 269.071 313.358 269.887C313.521 270.155 313.653 270.439 313.752 270.736C313.836 270.95 313.904 271.169 313.955 271.393C314.078 271.881 314.102 272.388 314.026 272.885Z" fill="#484B55"/>
<path d="M313.956 271.393C313.91 271.432 313.862 271.468 313.812 271.5C313.701 271.568 313.572 271.602 313.442 271.596C313.061 271.523 312.702 271.362 312.395 271.126C312.088 270.889 311.841 270.584 311.673 270.234C311.305 269.656 311.164 268.962 311.279 268.286C311.312 268.161 311.369 268.043 311.446 267.939C312.254 268.395 312.917 269.071 313.358 269.887C313.521 270.154 313.653 270.439 313.752 270.736C313.836 270.95 313.904 271.169 313.956 271.393Z" fill="#7D7F86"/>
<path d="M329.568 264.226L334.408 267.016L333.826 270.073L327.069 266.177C327.701 265.303 328.567 264.627 329.568 264.226Z" fill="#5C5E67"/>
<path d="M331.574 264.287L333.748 265.549L334.408 267.017L329.568 264.226C329.888 264.093 330.232 264.029 330.578 264.04C330.924 264.05 331.264 264.135 331.574 264.287Z" fill="#5C5E67"/>
<path d="M327.909 266.661L333.826 270.073L333.61 271.209L331.314 273.129L325.588 269.827C325.69 268.832 326.006 267.871 326.515 267.009C326.682 266.72 326.867 266.442 327.07 266.177L327.909 266.661Z" fill="#7D7F86"/>
<path d="M331.314 273.129L328.87 274.005L326.904 272.848C326.845 272.822 326.787 272.793 326.731 272.761C326.281 272.432 325.934 271.981 325.731 271.461C325.529 270.941 325.479 270.374 325.588 269.827L331.314 273.129Z" fill="#5C5E67"/>
<path d="M328.399 273.7C327.949 273.37 327.602 272.919 327.4 272.399C327.197 271.88 327.147 271.313 327.256 270.766C327.358 269.77 327.674 268.809 328.183 267.948C328.35 267.658 328.535 267.38 328.738 267.115C329.369 266.241 330.236 265.565 331.236 265.164C331.554 265.032 331.897 264.968 332.241 264.978C332.586 264.988 332.924 265.072 333.234 265.222L332.809 264.973C332.497 264.822 332.155 264.739 331.808 264.731C331.461 264.722 331.116 264.787 330.797 264.923C329.796 265.323 328.929 266 328.298 266.873C328.095 267.139 327.91 267.417 327.743 267.706C327.234 268.567 326.918 269.529 326.817 270.524C326.708 271.071 326.757 271.638 326.96 272.158C327.162 272.677 327.509 273.129 327.959 273.458C328.016 273.49 328.073 273.518 328.132 273.545C328.132 273.545 328.455 273.732 328.399 273.7Z" fill="#3F414B"/>
<path d="M333.748 265.549C332.281 264.707 330.001 265.918 328.654 268.253C327.307 270.588 327.404 273.163 328.87 274.005C330.522 274.953 332.779 273.356 333.964 271.301C335.311 268.966 335.214 266.391 333.748 265.549Z" fill="#484B55"/>
<path d="M49.8596 97.2617L54.699 100.052L54.1177 103.108L47.3608 99.2124C47.9922 98.3387 48.8588 97.6622 49.8596 97.2617Z" fill="#5C5E67"/>
<path d="M46.8061 100.045C46.973 99.7557 47.1583 99.4777 47.361 99.2124L54.118 103.108L53.9017 104.245L51.6058 106.164L45.8799 102.863C45.9815 101.868 46.2975 100.906 46.8061 100.045Z" fill="#7D7F86"/>
<path d="M51.6056 106.164L49.1619 107.041L47.1951 105.884C47.1361 105.858 47.0785 105.829 47.0224 105.797C46.5721 105.468 46.2252 105.017 46.0227 104.497C45.8203 103.977 45.7706 103.41 45.8797 102.863L51.6056 106.164Z" fill="#5C5E67"/>
<path d="M48.0408 106.363C47.5904 106.034 47.2435 105.583 47.0411 105.063C46.8386 104.543 46.789 103.976 46.898 103.429C46.9997 102.434 47.3157 101.473 47.8243 100.611C47.9912 100.322 48.1765 100.044 48.3792 99.7788C49.0106 98.905 49.8772 98.2286 50.878 97.8281C51.196 97.6955 51.5386 97.632 51.883 97.642C52.2274 97.652 52.5658 97.7351 52.8756 97.8859L52.4507 97.6364C52.1381 97.4855 51.7969 97.403 51.4499 97.3943C51.1029 97.3856 50.758 97.451 50.4383 97.5862C49.4374 97.9867 48.5709 98.6632 47.9395 99.537C47.7367 99.8021 47.5514 100.08 47.3846 100.369C46.8759 101.231 46.5599 102.192 46.4583 103.187C46.3493 103.734 46.3989 104.301 46.6014 104.821C46.8038 105.341 47.1507 105.792 47.601 106.121C47.6572 106.154 47.7151 106.182 47.7737 106.208C47.7737 106.208 48.097 106.396 48.0408 106.363Z" fill="#3F414B"/>
<path d="M69.9721 102.452V117.194L62.5732 121.467V106.745L69.9721 102.452Z" fill="#A5A6AA"/>
<path d="M47.7568 100.6V112.914L62.5735 121.466V109.172C62.5724 108.797 62.6216 108.424 62.7198 108.062L47.9149 99.4648C47.8106 99.8341 47.7574 100.216 47.7568 100.6Z" fill="#D6D6D8"/>
<path d="M48.9242 97.6992C48.4484 98.1962 48.1019 98.8025 47.915 99.4647L62.7199 108.062C62.9031 107.398 63.2463 106.79 63.7195 106.29L48.9242 97.6992Z" fill="#E7E7E8"/>
<path d="M64.6629 105.536L69.972 102.452L55.1633 93.9248L49.8749 96.9488C49.5234 97.1517 49.2032 97.4046 48.9243 97.6995L63.7196 106.291C63.9959 105.995 64.3136 105.741 64.6629 105.536Z" fill="#D6D6D8"/>
<path d="M66.7123 67.8379L66.8 100.052L61.2583 103.216L61.8192 70.6781L66.7123 67.8379Z" fill="#515567"/>
<path d="M61.8194 70.6782L52.0254 65V96.9508C52.0254 97.4134 52.1472 97.8679 52.3785 98.2686C52.6098 98.6693 52.9425 99.002 53.3432 99.2334L60.2168 103.202C60.3791 103.296 60.5633 103.345 60.7508 103.345C60.9383 103.345 61.1225 103.296 61.2849 103.202C61.4473 103.108 61.5821 102.974 61.676 102.811C61.7698 102.649 61.8193 102.465 61.8194 102.277V70.6782Z" fill="#7F828D"/>
<path d="M53.4979 104.122L45.2788 108.86L46.2663 114.051L57.7416 107.435C56.6693 105.951 55.1977 104.802 53.4979 104.122Z" fill="#AEAFB3"/>
<path d="M50.0912 104.226L50.0804 104.207L44.9561 107.163L45.2791 108.861L53.4982 104.122C52.9558 103.895 52.3711 103.787 51.7835 103.805C51.1958 103.823 50.6188 103.967 50.0912 104.226Z" fill="#A5A6AA"/>
<path d="M58.6838 108.848C58.4005 108.357 58.0857 107.885 57.7414 107.435L46.2661 114.051L46.6333 115.982L50.5325 119.241L60.257 113.634C60.0844 111.944 59.5477 110.311 58.6838 108.848Z" fill="#A5A6AA"/>
<path d="M50.5327 119.241L53.264 121.524L58.0231 118.765C58.1228 118.72 58.221 118.672 58.3165 118.617C59.8 117.766 60.4512 115.867 60.2573 113.634L50.5327 119.241Z" fill="#B0B0B4"/>
<path d="M53.6314 111.756C51.3441 107.79 47.4711 105.733 44.9809 107.163C42.4906 108.592 42.3261 112.966 44.6134 116.932C46.6265 120.422 50.4588 123.134 53.2639 121.524C55.7542 120.095 55.9186 115.721 53.6314 111.756Z" fill="#D6D6D8"/>
<path d="M51.4512 120.805C49.583 120.805 47.1429 118.925 45.6491 116.334C44.4402 114.437 43.9851 112.156 44.3736 109.94C44.5308 109.224 44.9629 108.599 45.5768 108.199C45.9363 107.998 46.3425 107.896 46.7542 107.903C48.6832 107.903 51.0848 109.733 52.5961 112.352C53.8055 114.25 54.2606 116.531 53.8715 118.747C53.7144 119.463 53.2823 120.088 52.6685 120.488C52.2986 120.701 51.8781 120.811 51.4512 120.805Z" fill="#343640"/>
<path d="M51.3932 116.063C50.7683 115.942 50.1805 115.676 49.6765 115.287C49.1726 114.897 48.7666 114.396 48.4907 113.822C47.9364 112.929 47.7036 111.873 47.831 110.829C47.5378 111.029 47.3308 111.332 47.2512 111.678C47.057 112.786 47.2845 113.927 47.8889 114.876C48.1645 115.449 48.5704 115.949 49.0742 116.338C49.578 116.726 50.1656 116.991 50.7901 117.111C51.0035 117.114 51.2137 117.059 51.3986 116.952C51.7055 116.752 51.9216 116.44 52.0002 116.082C52.0166 116.021 52.0142 115.949 52.026 115.885L52.0022 115.9C51.8175 116.008 51.6072 116.064 51.3932 116.063Z" fill="#262833"/>
<path d="M52.0261 115.885C52.0142 115.885 52.0143 115.9 52.0023 115.9C51.8176 116.008 51.6073 116.064 51.3933 116.063C50.7692 115.94 50.1822 115.673 49.6785 115.284C49.1749 114.895 48.7683 114.395 48.4908 113.822C47.9329 112.93 47.6998 111.873 47.8311 110.829C47.8311 110.817 47.8566 110.808 47.8566 110.808C48.0361 110.71 48.2379 110.661 48.4422 110.665C48.6131 110.663 48.7829 110.692 48.9441 110.748C49.117 110.796 49.285 110.86 49.446 110.94C50.2544 111.395 50.9173 112.071 51.358 112.887C51.5208 113.155 51.653 113.439 51.7523 113.736C51.8363 113.95 51.9042 114.169 51.9555 114.393C52.0782 114.881 52.1022 115.388 52.0261 115.885Z" fill="#484B55"/>
<path d="M51.9555 114.393C51.9099 114.432 51.862 114.468 51.8121 114.5C51.7008 114.568 51.5719 114.602 51.4417 114.596C51.0608 114.523 50.7023 114.362 50.3951 114.126C50.0879 113.889 49.8406 113.584 49.6731 113.234C49.3046 112.656 49.164 111.962 49.2787 111.286C49.312 111.161 49.3688 111.043 49.446 110.939C50.2545 111.395 50.9174 112.071 51.3581 112.887C51.5208 113.154 51.6531 113.439 51.7524 113.736C51.8363 113.95 51.9042 114.169 51.9555 114.393Z" fill="#7D7F86"/>
<path d="M67.5681 107.226L72.4076 110.016L71.8262 113.073L65.0693 109.177C65.7008 108.303 66.5673 107.627 67.5681 107.226Z" fill="#5C5E67"/>
<path d="M69.5744 107.287L71.7477 108.549L72.4077 110.017L67.5684 107.226C67.8877 107.093 68.232 107.029 68.578 107.04C68.924 107.05 69.2637 107.135 69.5744 107.287Z" fill="#5C5E67"/>
<path d="M65.9093 109.661L71.8265 113.073L71.6103 114.209L69.3143 116.129L63.5884 112.827C63.69 111.832 64.006 110.871 64.5147 110.009C64.6815 109.72 64.8669 109.442 65.0696 109.177L65.9093 109.661Z" fill="#7D7F86"/>
<path d="M69.3141 116.129L66.8704 117.005L64.9036 115.848C64.8446 115.822 64.787 115.793 64.7309 115.761C64.2805 115.432 63.9337 114.981 63.7312 114.461C63.5288 113.941 63.4791 113.374 63.5882 112.827L69.3141 116.129Z" fill="#5C5E67"/>
<path d="M66.3993 116.7C65.9489 116.37 65.602 115.919 65.3996 115.399C65.1971 114.88 65.1474 114.313 65.2564 113.766C65.3581 112.77 65.6742 111.809 66.1828 110.948C66.3496 110.658 66.5349 110.38 66.7377 110.115C67.3691 109.241 68.2356 108.565 69.2364 108.164C69.5544 108.032 69.897 107.968 70.2415 107.978C70.5859 107.988 70.9242 108.072 71.2341 108.222L70.8092 107.973C70.4965 107.822 70.1554 107.739 69.8083 107.731C69.4613 107.722 69.1164 107.787 68.7967 107.923C67.7959 108.323 66.9294 109 66.298 109.873C66.0952 110.139 65.9098 110.417 65.743 110.706C65.2343 111.567 64.9183 112.529 64.8167 113.524C64.7077 114.071 64.7573 114.638 64.9598 115.158C65.1622 115.677 65.5091 116.129 65.9594 116.458C66.0157 116.49 66.0735 116.518 66.1322 116.545C66.1322 116.545 66.4555 116.732 66.3993 116.7Z" fill="#3F414B"/>
<path d="M71.7476 108.549C70.2814 107.707 68.0009 108.918 66.6541 111.253C65.3074 113.588 65.4041 116.163 66.8705 117.005C68.5222 117.953 70.7786 116.356 71.964 114.301C73.3108 111.966 73.214 109.391 71.7476 108.549Z" fill="#484B55"/>
<path d="M155.777 189.056C155.777 189.056 131.398 209.511 126.009 214.56C120.534 219.61 116.257 224.317 119.508 232.533C122.758 240.749 137.642 255.298 147.308 256.924C156.974 258.465 175.194 255.726 188.709 248.28C202.224 240.749 253.462 205.146 253.462 205.146L297.515 168.002L369.111 102.958L385.62 86.1835C385.62 86.1835 388.614 78.3953 385.62 73.7737C382.626 69.1522 323.262 100.134 323.262 100.134L253.548 132.057L238.75 132.741C238.75 132.741 195.125 141.385 185.459 146.606C175.793 151.741 168.693 151.912 167.239 160.043L155.777 189.056Z" fill="url(#paint0_linear_267_2870)"/>
<path d="M368.938 102.958L385.447 86.1835C385.447 86.1835 388.441 78.3953 385.447 73.8594L383.736 74.3729C383.736 74.3729 385.019 76.4269 382.111 78.3953C379.203 80.3638 288.873 151.57 288.873 151.57C288.873 151.57 282.971 154.908 278.266 150.885L211.717 179.299L199.143 209.511C199.143 209.511 175.363 225.686 169.803 228.853C164.243 232.105 150.899 239.465 144.141 236.898C137.383 234.33 137.469 231.677 131.909 228.082C126.862 224.83 121.73 223.889 119.506 222.263C118.137 225.087 117.795 228.339 119.42 232.533C122.671 240.749 137.554 255.298 147.22 256.924C156.886 258.465 175.106 255.726 188.621 248.28C202.136 240.749 253.374 205.146 253.374 205.146L297.427 168.002L368.938 102.958Z" fill="#E8E8E8"/>
<path d="M169.805 228.853C175.365 225.6 199.145 209.51 199.145 209.51L200.514 206.258L185.117 196.502L155.777 188.97C155.777 188.97 131.398 209.425 126.009 214.474C123.272 216.956 120.877 219.438 119.508 222.177C121.732 223.803 126.865 224.744 131.911 227.997C137.472 231.591 137.386 234.244 144.144 236.812C150.901 239.465 164.245 232.105 169.805 228.853Z" fill="url(#paint1_linear_267_2870)"/>
<path d="M169.805 228.853C175.365 225.6 199.145 209.51 199.145 209.51L200.514 206.258L185.117 196.502L155.777 188.97C155.777 188.97 131.398 209.425 126.009 214.474C123.272 216.956 120.877 219.438 119.508 222.177C121.732 223.803 126.865 224.744 131.911 227.997C137.472 231.591 137.386 234.244 144.144 236.812C150.901 239.465 164.245 232.105 169.805 228.853Z" fill="#E0B500"/>
<path d="M360.384 99.877L280.148 165.349L286.478 171.682L366.115 102.53L360.384 99.877Z" fill="#E0B500"/>
<path d="M145.51 242.375C145.424 242.29 145.338 242.29 145.253 242.29C145.424 242.29 145.51 242.375 145.51 242.375Z" fill="#E0B500"/>
<path d="M144.911 242.033C144.74 241.947 144.568 241.861 144.483 241.776C144.568 241.947 144.74 242.033 144.911 242.033Z" fill="#E0B500"/>
<path d="M144.481 241.861C144.396 241.861 144.311 241.776 144.311 241.776C144.311 241.776 144.396 241.776 144.481 241.861Z" fill="#E0B500"/>
<path d="M145.509 242.375C145.424 242.289 145.338 242.289 145.252 242.289C145.424 242.289 145.509 242.375 145.509 242.375Z" fill="#E0B500"/>
<path d="M145.251 242.204C145.166 242.118 145.08 242.118 144.909 242.033C144.995 242.118 145.08 242.204 145.251 242.204Z" fill="#E0B500"/>
<path d="M142.343 240.834C142.172 240.749 142.001 240.663 141.915 240.663C142.001 240.663 142.086 240.749 142.343 240.834Z" fill="#E0B500"/>
<path d="M144.226 241.776C143.456 241.433 142.943 241.177 142.515 240.92C143.028 241.177 143.713 241.433 144.226 241.776Z" fill="#E0B500"/>
<path d="M240.114 196.074L215.907 211.137C215.907 211.137 183.231 231.163 174.249 235.528C165.182 239.893 153.72 246.312 145.508 242.375L144.396 248.366C144.396 248.366 146.877 252.474 153.549 252.474C160.991 252.474 178.355 245.114 189.047 238.267C199.825 231.42 249.01 201.038 249.01 201.038L240.114 196.074Z" fill="#E0B500"/>
<path d="M142.515 240.92C142.43 240.92 142.344 240.834 142.259 240.834C142.344 240.834 142.43 240.92 142.515 240.92Z" fill="#E0B500"/>
<path opacity="0.4" d="M307.265 159.016L307.436 137.448C307.436 137.277 307.179 133.768 304.186 131.543C302.133 129.917 290.243 122.642 283.314 118.449L282.801 118.705C289.729 122.899 301.876 130.345 303.929 131.971C306.752 134.111 307.008 137.534 307.008 137.62L306.837 159.615L307.265 159.016Z" fill="#B9C0C4"/>
<path opacity="0.4" d="M331.303 111.089C329.849 109.976 323.775 106.21 317.873 102.53L317.36 102.787C323.348 106.467 329.592 110.404 331.046 111.431C333.869 113.571 334.126 116.994 334.126 117.08L333.954 134.71L334.382 134.282L334.553 116.994C334.553 116.908 334.297 113.399 331.303 111.089Z" fill="#B9C0C4"/>
<path opacity="0.4" d="M359.529 86.3548C362.352 88.4944 362.609 91.9178 362.609 92.0033L362.437 108.863L362.865 108.436L363.036 91.9178C363.036 91.7466 362.78 88.2376 359.786 86.0124C359.273 85.5845 357.989 84.8143 356.364 83.7017C356.193 83.7872 356.022 83.8728 355.937 83.8728C357.647 85.071 358.93 85.9269 359.529 86.3548Z" fill="#B9C0C4"/>
<g opacity="0.4">
<path opacity="0.4" d="M215.994 202.15L215.908 210.966L215.737 210.709L186.397 227.141L186.483 216.871C186.483 216.7 186.226 213.191 183.232 210.966C180.324 208.74 158.084 195.304 157.228 194.705C157.143 194.619 155.517 193.506 151.155 192.907C150.984 192.993 150.898 193.164 150.727 193.25C155.261 193.763 156.972 194.961 156.972 194.961C157.228 195.132 180.067 208.997 182.976 211.137C185.798 213.276 186.055 216.7 186.055 216.785L185.969 227.227C183.66 228.425 161.078 239.807 155.689 242.118C150.129 244.515 143.628 243.659 143.628 243.573L143.542 244.001C143.542 244.001 144.825 244.172 146.707 244.172C149.188 244.172 152.695 243.83 155.86 242.461C161.078 240.235 182.719 229.281 185.969 227.654L185.798 249.478C185.969 249.393 186.055 249.307 186.226 249.307L186.397 227.483L215.823 210.966L215.652 230.65C215.823 230.564 215.908 230.479 216.079 230.393L216.336 202.065L215.994 202.15Z" fill="#B9C0C4"/>
<path opacity="0.4" d="M152.182 243.316L152.61 243.145C150.642 237.496 144.655 231.591 135.331 225.943C129.6 222.434 123.612 221.064 120.532 220.551C120.447 220.722 120.361 220.808 120.276 220.979C123.27 221.492 129.257 222.776 135.074 226.285C144.312 231.933 150.3 237.839 152.182 243.316Z" fill="#B9C0C4"/>
</g>
<path d="M289.988 127.35L382.884 75.6566C382.884 75.6566 385.108 75.1431 384.851 78.4809C384.68 81.7331 385.45 86.1835 385.45 86.1835L403.328 69.4089L402.301 59.7379L415.132 0L394.004 10.2701C394.004 10.2701 391.352 10.3557 389.385 14.3782C387.503 18.4006 362.098 66.2423 362.098 66.2423C362.098 66.2423 356.11 74.0305 352.603 77.2827C349.096 80.5349 306.583 113.143 290.074 124.611C287.08 126.75 287.251 128.719 289.988 127.35Z" fill="url(#paint2_linear_267_2870)"/>
<path opacity="0.4" d="M386.732 19.5134C386.646 19.7702 386.475 19.9413 386.39 20.1981L389.811 18.2297L359.873 81.99L359.787 82.1612L359.873 82.2468C359.873 82.2468 361.327 83.7017 360.557 87.8953H360.728L360.985 87.7242C361.583 84.044 360.557 82.4179 360.215 81.99L390.325 17.8017L404.952 9.32888L383.653 73.7739L402.557 61.6209L402.471 61.1074L384.593 72.8325L405.636 9.07213L414.104 4.19382L414.19 3.59473L386.732 19.5134Z" fill="#B9C0C4"/>
<path d="M394.003 10.2701C394.003 10.2701 391.351 10.3557 389.384 14.3782C387.502 18.4006 362.097 66.2423 362.097 66.2423C362.097 66.2423 356.109 74.0305 352.602 77.2827C349.694 79.9358 321.038 102.017 301.621 116.309V120.931L310.346 116.052L359.958 82.161L390.496 17.8015L414.19 4.10805L415.046 0L394.003 10.2701Z" fill="#E0B500"/>
<path d="M403.326 69.4087L402.3 59.7377L403.839 52.3774C398.279 62.9043 384.85 78.9942 384.764 78.9942C384.764 80.1924 384.764 81.4761 384.935 82.6743L387.587 84.1292L403.326 69.4087Z" fill="#E0B500"/>
<path d="M155.776 189.056L156.375 187.43L118.31 122.728L110.098 120.503L152.183 192.051C154.407 190.254 155.776 189.056 155.776 189.056Z" fill="url(#paint3_linear_267_2870)"/>
<path d="M202.738 238.951C202.738 238.951 205.818 232.019 213.26 232.533C213.26 232.533 213.773 235.614 213.003 237.069C212.233 238.438 208.64 239.465 202.738 238.951Z" fill="url(#paint4_linear_267_2870)"/>
<path d="M213.344 234.929C213.344 234.929 210.864 234.929 209.837 236.555C208.811 238.181 211.377 238.695 214.884 237.925C218.391 237.069 285.368 223.204 285.368 223.204L281.69 221.321L213.344 234.929Z" fill="url(#paint5_linear_267_2870)"/>
<path d="M382.111 278.491C382.111 278.491 390.237 283.626 395.968 280.802C401.699 277.978 429.927 258.721 429.927 258.721C429.927 258.721 428.644 257.438 424.71 253.501C420.775 249.564 340.111 193.506 340.111 193.506L156.202 83.3591L42.2639 24.7338C42.2639 24.7338 39.099 21.0536 32.8546 24.7338C26.6102 28.4139 4.11345 41.0804 4.11345 41.0804C4.11345 41.0804 -4.26939 47.328 2.9159 52.2919C10.1012 57.2558 167.151 159.957 167.151 159.957C167.151 159.957 168.434 153.795 173.395 156.534C178.357 159.272 209.579 178.529 209.579 178.529C209.579 178.529 210.605 179.641 210.006 181.353C209.493 183.065 209.151 184.862 210.519 185.632C211.974 186.488 382.111 278.491 382.111 278.491Z" fill="url(#paint6_linear_267_2870)"/>
<path d="M362.438 104.071C362.438 104.071 358.589 101.76 360.899 99.0212C363.123 96.368 384.935 78.9944 384.935 78.9944C384.935 78.9944 408.287 76.3413 408.458 76.3413C408.629 76.3413 451.057 110.062 451.057 110.062C451.057 110.062 453.709 112.03 450.544 113.998C447.464 115.881 430.955 126.066 430.955 126.066C430.955 126.066 426.165 127.606 423 126.922C419.835 126.066 362.438 104.071 362.438 104.071Z" fill="url(#paint7_linear_267_2870)"/>
<path opacity="0.4" d="M424.027 252.902C421.289 254.357 417.868 256.154 414.104 258.122L329.591 197.186C333.184 195.475 336.435 193.934 338.83 192.822L338.402 192.565C336.007 193.677 332.842 195.218 329.249 196.93L146.88 87.2105C150.472 85.5844 153.552 84.215 155.776 83.188L155.263 82.9313C152.953 83.9583 149.874 85.3276 146.367 86.9537L34.2247 29.5266L42.7786 24.9906L42.3509 24.7339L7.7931 43.1345C7.70756 43.1345 2.48967 45.9588 1.63428 51.265C1.71982 51.3506 1.71982 51.3506 1.80536 51.4362H1.97643C2.66075 46.3011 7.87864 43.5624 7.96418 43.4769L33.7115 29.7834L145.853 87.1249C132.167 93.3726 112.322 102.444 105.992 105.526C101.116 108.007 98.7212 111.516 97.6092 114.512C97.6948 114.597 97.8658 114.683 97.9514 114.769C99.0634 111.859 101.373 108.35 106.163 105.953C112.493 102.787 132.595 93.6293 146.281 87.3816L328.651 197.015C314.28 203.862 293.579 213.79 289.303 215.929C285.71 217.727 283.4 221.236 281.946 224.317C282.032 224.402 282.203 224.488 282.288 224.488C283.742 221.492 286.052 218.069 289.474 216.272C293.836 214.132 314.708 204.119 329.078 197.272L413.591 258.294C404.438 263.086 393.831 268.735 389.041 271.131C385.106 273.185 383.225 276.095 382.455 278.663C382.54 278.748 382.711 278.834 382.797 278.834C383.567 276.266 385.363 273.442 389.212 271.388C394.002 268.906 404.695 263.258 413.933 258.465L414.361 258.208C418.125 256.24 421.546 254.442 424.198 252.987C424.283 253.073 424.112 252.987 424.027 252.902Z" fill="#B9C0C4"/>
<g opacity="0.3">
<path opacity="0.3" d="M384.254 275.239L211.379 180.24L210.096 179.47C210.267 179.984 210.353 180.668 210.096 181.439C209.583 183.15 209.241 184.948 210.609 185.718C211.978 186.488 382.115 278.491 382.115 278.491C382.115 278.491 390.242 283.626 395.973 280.802C396.743 280.46 397.855 279.775 399.223 278.919C396.229 278.834 392.123 278.491 389.643 277.635C385.366 276.095 384.254 275.239 384.254 275.239Z" fill="#D1D7DB"/>
<path opacity="0.3" d="M2.91864 52.2919C10.1039 57.2557 167.154 159.957 167.154 159.957C167.154 159.957 168.437 153.795 173.398 156.534C174.938 157.389 178.787 159.7 183.492 162.525L170.062 153.966L3.34633 47.9271C3.34633 47.9271 1.63555 46.301 2.31986 42.792C0.352461 45.0172 -1.9571 48.9541 2.91864 52.2919Z" fill="#D1D7DB"/>
</g>
<path d="M339.172 87.8953C346.272 82.4179 351.404 78.3099 352.602 77.2828C356.109 74.0306 362.096 66.2425 362.096 66.2425C362.096 66.2425 364.577 61.6209 367.999 55.0309C357.306 49.9814 337.889 40.9095 334.467 39.6257C329.677 37.8284 326.854 38.7699 326.854 38.7699C326.854 38.7699 308.72 48.1841 305.897 50.4949C303.074 52.8057 305.897 56.9138 305.897 56.9138L339.172 87.8953Z" fill="url(#paint8_linear_267_2870)"/>
<path opacity="0.4" d="M360.214 68.553C360.3 68.4674 360.385 68.2962 360.471 68.2106L315.819 44.5894C315.648 44.6749 315.477 44.7605 315.392 44.8461L317.958 46.2155L304.699 54.2604C304.699 54.4316 304.785 54.5171 304.785 54.6883L307.779 52.891L344.988 83.2735C345.074 83.1879 345.245 83.1023 345.33 83.0167L308.121 52.6343L318.3 46.4722L360.214 68.553Z" fill="#B9C0C4"/>
<path opacity="0.3" d="M424.37 124.953L360.386 99.877C359.36 102.188 362.439 104.071 362.439 104.071C362.439 104.071 419.836 126.066 423.001 126.836C426.166 127.521 430.956 125.98 430.956 125.98C430.956 125.98 432.581 124.953 434.976 123.498C427.021 126.579 424.37 124.953 424.37 124.953Z" fill="#D1D7DB"/>
<path opacity="0.4" d="M386.645 78.7378C386.388 78.7378 386.217 78.8234 386.046 78.8234L437.626 116.823L427.276 123.242L364.576 95.7691C364.49 95.8547 364.319 95.9403 364.233 96.1114L426.848 123.584L421.972 126.579C422.143 126.665 422.314 126.665 422.486 126.751L438.054 117.165L441.475 119.647C441.646 119.562 441.732 119.476 441.903 119.39L386.645 78.7378Z" fill="#B9C0C4"/>
<path opacity="0.3" d="M341.653 85.9268L307.351 55.0309C307.351 55.0309 305.983 53.4048 306.068 50.3237C305.983 50.4093 305.897 50.4093 305.897 50.4949C303.074 52.8057 305.897 56.9137 305.897 56.9137L339.172 87.8953C340.027 87.2106 340.883 86.6115 341.653 85.9268Z" fill="#D1D7DB"/>
<path d="M424.626 253.501C424.54 253.415 424.283 253.244 424.027 252.987C419.835 255.212 392.891 269.505 391.436 270.275C389.811 271.131 387.587 272.158 385.449 274.212C384.08 275.582 383.139 277.55 382.711 278.834C384.593 279.946 391.18 283.199 395.97 280.802C401.701 277.978 429.929 258.721 429.929 258.721C429.929 258.721 428.56 257.352 424.626 253.501Z" fill="#E0B500"/>
<path d="M7.27977 43.6479C8.56286 42.8776 39.2714 26.531 42.5219 24.8193L42.3508 24.7338C42.3508 24.7338 39.1859 21.0536 32.9415 24.7338C26.6116 28.4139 4.11482 41.0804 4.11482 41.0804C4.11482 41.0804 -3.32709 46.6434 1.80526 51.4361C1.97634 50.4091 2.3185 49.1253 3.08835 48.0983C4.37144 46.1298 5.91114 44.4182 7.27977 43.6479Z" fill="#E0B500"/>
<path d="M125.153 233.56C125.153 233.56 124.811 230.564 125.153 228.938C125.153 228.938 119.165 224.745 119.593 226.542C120.02 228.51 119.251 230.222 125.153 233.56Z" fill="#172529"/>
<path d="M136.529 235.785C136.529 235.785 138.24 240.15 137.384 242.889L138.924 246.312L141.062 247.938C141.062 247.938 145.596 249.393 145.681 246.74C145.767 244.087 146.451 242.974 144.912 241.776C143.457 240.578 136.016 233.988 136.529 235.785Z" fill="#172529"/>
<path d="M132.425 244.686C133.623 244.343 134.307 243.059 134.307 241.177C134.307 237.924 131.997 233.902 129.174 232.276C127.72 231.42 126.437 231.42 125.496 231.933C125.496 231.933 120.877 235.87 116.942 245.199C116.942 245.199 127.464 246.226 132.425 244.686Z" fill="url(#paint9_linear_267_2870)"/>
<path d="M173.483 156.62C178.444 159.358 209.666 178.615 209.666 178.615C209.666 178.615 210.435 179.471 210.264 180.84C226.859 171.255 258.081 156.192 269.03 150.971L238.749 132.827C214.884 135.994 179.556 147.548 172.798 152.34C166.041 157.219 167.153 159.957 167.153 159.957C167.153 159.957 168.436 153.881 173.483 156.62Z" fill="url(#paint10_linear_267_2870)"/>
<path d="M217.279 189.312L216.167 202.065L228.57 195.389C224.037 192.993 220.187 190.939 217.279 189.312Z" fill="#303E42"/>
<path d="M267.661 136.421C260.647 132.912 253.462 132.057 253.462 132.057L238.664 132.741L249.014 138.903L267.661 136.421Z" fill="#303E42"/>
<path d="M281.519 148.66C280.322 145.494 277.328 142.241 272.281 139.075L253.548 141.728L278.696 156.791C280.322 154.565 282.46 151.142 281.519 148.66Z" fill="#303E42"/>
<path opacity="0.2" d="M247.902 138.304C250.211 136.507 253.462 134.282 257.226 132.741C254.916 132.228 253.462 132.057 253.462 132.057L238.664 132.741L247.902 138.304Z" fill="white"/>
<path d="M210.607 185.718C209.238 184.948 209.58 183.15 210.094 181.439C210.607 179.727 209.666 178.614 209.666 178.614C209.666 178.614 178.444 159.358 173.483 156.619C168.522 153.88 167.239 160.043 167.239 160.043L155.862 189.141C155.862 189.141 163.731 194.875 172.884 200.182C181.951 205.488 192.9 212.249 199.316 210.708C205.731 209.254 210.521 204.803 210.521 204.803L214.542 187.772C212.061 186.574 210.692 185.803 210.607 185.718Z" fill="#303E42"/>
<path opacity="0.7" d="M177.845 163.894C177.076 164.835 176.99 170.484 176.562 174.848C176.135 179.213 177.418 179.384 177.418 179.384C177.418 179.384 185.544 175.448 187.682 173.65C189.222 172.366 189.137 168.258 188.966 166.033C186.057 164.236 183.234 162.524 180.754 161.069C179.642 162.096 178.273 163.38 177.845 163.894Z" fill="#C5D0D3"/>
<path opacity="0.7" d="M166.982 160.471L155.777 189.056C155.777 189.056 155.862 189.141 156.119 189.312C161.508 188.457 169.292 184.006 169.292 184.006C169.292 184.006 172.885 164.579 172.885 161.84C172.799 159.871 169.035 160.128 166.982 160.471Z" fill="#C5D0D3"/>
<path d="M199.916 203.862C199.231 200.952 197.777 198.384 197.777 198.384L168.437 181.096H163.647L156.205 189.398C158.087 190.682 164.93 195.56 172.714 200.096C181.781 205.402 192.73 212.163 199.146 210.623C199.745 210.452 200.343 210.28 200.942 210.109C200.685 208.141 200.343 205.488 199.916 203.862Z" fill="#39464A"/>
<path opacity="0.2" d="M173.483 156.619C168.522 153.88 167.239 160.043 167.239 160.043L155.862 189.141C155.862 189.141 157.402 190.254 159.882 191.965C170.232 178.7 183.234 171.768 192.729 168.259C184.432 163.124 175.878 157.903 173.483 156.619Z" fill="white"/>
<path opacity="0.3" d="M210.607 185.718C209.238 184.948 209.58 183.15 210.094 181.439C210.607 179.727 209.666 178.614 209.666 178.614C209.666 178.614 178.444 159.358 173.483 156.619C168.522 153.88 167.239 160.043 167.239 160.043L155.862 189.141C155.862 189.141 163.731 194.875 172.884 200.182C181.951 205.488 192.9 212.249 199.316 210.708C205.731 209.254 210.521 204.803 210.521 204.803L214.542 187.772C212.061 186.574 210.692 185.803 210.607 185.718Z" fill="url(#paint11_linear_267_2870)"/>
<path d="M125.664 235.785L121.814 229.024L96.6658 210.195C96.6658 210.195 95.4682 209.168 94.7839 210.623C94.0996 212.078 95.2116 213.191 95.9815 213.961C96.7513 214.731 119.847 236.127 119.847 236.127L124.552 237.497L125.664 235.785Z" fill="#797979"/>
<path d="M96.6658 210.195C96.6658 210.195 95.4682 209.168 94.7839 210.623C94.0996 212.078 95.2116 213.191 95.9815 213.961C96.067 214.046 96.7513 214.646 97.6922 215.587L99.2319 212.164L96.6658 210.195Z" fill="#E0B500"/>
<path d="M132.42 244.686C133.618 244.343 134.302 243.059 134.302 241.177C134.302 237.924 131.992 233.902 129.17 232.276C127.715 231.42 126.432 231.42 125.491 231.933C125.491 231.933 120.872 235.87 116.938 245.199C116.938 245.199 127.459 246.226 132.42 244.686Z" fill="url(#paint12_linear_267_2870)"/>
<path d="M159.195 268.221L131.565 246.055V243.573L132.763 241.776L139.692 245.542L159.109 266.167C159.109 266.167 159.793 266.938 159.708 267.794C159.708 268.649 159.195 268.221 159.195 268.221Z" fill="#797979"/>
<path d="M157.57 264.37L157.143 266.51L159.281 268.221C159.281 268.221 159.794 268.564 159.88 267.793C159.965 266.938 159.281 266.167 159.281 266.167L157.57 264.37Z" fill="#E0B500"/>
<path d="M340.14 212.226C340.098 212.334 340.018 212.422 339.915 212.474C339.782 212.547 339.635 212.593 339.483 212.608C335.914 213.093 332.282 212.466 329.081 210.813C326.26 209.185 325.221 206.912 325.944 204.791C325.993 204.685 326.075 204.598 326.179 204.543C326.309 204.472 326.453 204.427 326.601 204.409C330.172 203.924 333.806 204.551 337.008 206.207C339.824 207.833 340.873 210.105 340.14 212.226ZM330.305 210.102C331.145 210.518 332.071 210.728 333.008 210.717C333.945 210.706 334.866 210.473 335.696 210.038C337.211 209.158 337.253 207.76 335.789 206.915C334.949 206.5 334.023 206.289 333.086 206.3C332.149 206.312 331.228 206.544 330.398 206.979C328.883 207.859 328.841 209.257 330.305 210.102" fill="#071221"/>
<path d="M335.789 206.915C337.253 207.76 337.21 209.159 335.696 210.039C334.866 210.474 333.945 210.706 333.008 210.717C332.071 210.728 331.145 210.518 330.305 210.103C328.841 209.258 328.883 207.859 330.398 206.979C331.228 206.544 332.149 206.312 333.086 206.301C334.023 206.29 334.949 206.5 335.789 206.915ZM332.124 209.045C332.407 209.184 332.718 209.255 333.033 209.251C333.347 209.247 333.657 209.168 333.935 209.022C334.442 208.727 334.459 208.255 333.969 207.973C333.687 207.834 333.376 207.763 333.061 207.767C332.747 207.771 332.437 207.85 332.159 207.996C331.647 208.293 331.63 208.76 332.124 209.045Z" fill="#FFD420"/>
<path d="M333.97 207.973C334.459 208.256 334.442 208.728 333.935 209.022C333.657 209.168 333.347 209.247 333.033 209.251C332.718 209.255 332.407 209.184 332.125 209.045C331.63 208.76 331.647 208.293 332.159 207.996C332.437 207.85 332.747 207.771 333.061 207.767C333.376 207.763 333.687 207.834 333.97 207.973Z" fill="#071221"/>
<path d="M294.973 193.918C295.315 194.112 295.631 194.35 295.912 194.626C295.947 194.655 295.976 194.691 295.995 194.733C296.014 194.774 296.024 194.819 296.024 194.865C296.019 194.911 296.004 194.956 295.98 194.996C295.956 195.036 295.923 195.071 295.885 195.098C294.859 196.08 293.839 197.061 292.823 198.04C292.383 198.46 291.942 198.88 291.507 199.302C291.473 199.353 291.449 199.411 291.438 199.471C291.541 199.48 291.646 199.482 291.75 199.477C291.835 199.465 291.92 199.444 292.001 199.413C293.512 198.88 295.025 198.347 296.539 197.816C297.327 197.539 298.115 197.262 298.903 196.986C299.091 196.912 299.29 196.873 299.491 196.872C299.689 196.869 299.885 196.904 300.07 196.974C300.351 197.071 300.623 197.193 300.881 197.34C301.161 197.498 301.415 197.696 301.635 197.93C301.868 198.198 301.818 198.32 301.362 198.48C300.197 198.894 299.022 199.296 297.852 199.707C296.306 200.249 294.765 200.8 293.219 201.342C291.512 201.936 289.807 202.531 288.103 203.128C287.77 203.238 287.407 203.219 287.087 203.075C286.754 202.935 286.461 202.766 286.154 202.612C284.751 201.779 284.927 201.764 285.857 200.878C286.983 199.809 288.073 198.731 289.179 197.656C289.349 197.493 289.549 197.335 289.699 197.166C289.754 197.105 289.704 197.012 289.698 196.933C289.583 196.947 289.469 196.969 289.356 196.997C286.907 197.854 284.462 198.714 282.022 199.576C281.845 199.64 281.657 199.668 281.469 199.658C281.292 199.655 281.117 199.61 280.96 199.526C280.641 199.363 280.331 199.195 280.032 199.022C279.754 198.861 279.483 198.696 279.219 198.527C278.932 198.338 278.93 198.105 279.196 197.857C280.426 196.691 281.637 195.514 282.848 194.343C283.753 193.472 284.639 192.595 285.539 191.727C286.029 191.249 286.515 190.768 287.035 190.302C287.425 189.946 287.596 189.929 288.186 190.124C288.482 190.221 288.767 190.348 289.037 190.502C289.307 190.654 289.553 190.846 289.766 191.071C289.804 191.1 289.836 191.138 289.857 191.182C289.878 191.225 289.889 191.273 289.888 191.322C289.885 191.371 289.87 191.419 289.846 191.463C289.822 191.506 289.789 191.543 289.748 191.572C288.513 192.752 287.292 193.935 286.071 195.118C285.861 195.316 285.641 195.514 285.441 195.718C285.388 195.787 285.348 195.864 285.321 195.946C285.468 195.956 285.614 195.949 285.759 195.925C286.542 195.663 287.305 195.383 288.083 195.112C289.68 194.553 291.276 193.999 292.868 193.437C293.029 193.372 293.201 193.338 293.375 193.335C293.547 193.333 293.717 193.363 293.878 193.422C294.258 193.553 294.624 193.719 294.973 193.918Z" fill="#071221"/>
<path d="M308.237 206.411C307.515 207.053 306.673 207.544 305.76 207.857C305.552 207.952 305.323 207.994 305.094 207.977C304.865 207.961 304.644 207.887 304.452 207.763C304.114 207.57 303.776 207.376 303.439 207.181C302.765 206.792 302.091 206.402 301.419 206.012L298.542 204.351C297.912 203.987 297.841 203.999 297.547 204.503C297.072 205.319 297.576 206.133 298.498 206.665C299.194 207.052 299.975 207.26 300.772 207.271C301.059 207.268 301.35 207.251 301.637 207.224C301.849 207.198 302.065 207.214 302.271 207.271C302.356 207.296 302.439 207.331 302.516 207.375C302.589 207.415 302.653 207.468 302.705 207.533C302.866 207.681 302.991 207.863 303.07 208.067C303.149 208.271 303.179 208.49 303.159 208.707C303.111 209.063 302.88 209.22 302.272 209.305C300.498 209.593 298.678 209.409 296.998 208.769C296.565 208.594 296.144 208.39 295.738 208.16C295.236 207.931 294.792 207.591 294.44 207.167C294.088 206.742 293.837 206.242 293.706 205.706C293.518 204.5 294.07 203.402 295.473 202.458C296.205 201.978 296.962 201.536 297.74 201.135C300.488 199.869 303.618 199.713 306.479 200.698C306.83 200.833 307.17 200.995 307.496 201.181C308.376 201.624 309.056 202.381 309.401 203.303C309.544 203.878 309.509 204.483 309.301 205.038C309.093 205.593 308.722 206.072 308.237 206.411ZM304.809 205.083C305.187 205.295 305.328 205.266 305.528 204.969C306.076 204.153 305.916 203.422 304.882 202.796L304.823 202.761C303.681 202.161 302.354 202.011 301.106 202.341C300.503 202.463 300.454 202.563 300.878 202.813C301.09 202.937 301.303 203.061 301.518 203.185C301.946 203.433 302.378 203.679 302.805 203.926C303.249 204.182 303.694 204.441 304.139 204.699C304.362 204.827 304.585 204.955 304.809 205.083" fill="#071221"/>
<path d="M328.372 213.2C328.669 213.368 328.942 213.576 329.184 213.817C329.219 213.841 329.247 213.875 329.263 213.914C329.28 213.953 329.284 213.997 329.275 214.039C329.259 214.085 329.233 214.128 329.198 214.163C329.163 214.198 329.122 214.225 329.075 214.243L328.524 214.563C325.185 216.504 321.841 218.445 318.491 220.388C318.294 220.553 318.047 220.646 317.789 220.654C317.532 220.661 317.28 220.582 317.073 220.428C316.894 220.334 316.718 220.237 316.546 220.138C316.289 219.99 316.041 219.836 315.801 219.677C315.408 219.414 315.437 219.257 315.883 218.998L321.132 215.947L326.382 212.897C326.533 212.762 326.724 212.68 326.926 212.663C327.128 212.646 327.33 212.694 327.503 212.801C327.804 212.908 328.094 213.042 328.372 213.2Z" fill="#071221"/>
<path d="M324.071 210.773C324.322 210.917 324.564 211.075 324.798 211.245C325.197 211.533 325.117 211.655 324.651 211.926C323.713 212.477 322.771 213.019 321.828 213.567L314.298 217.943C314.097 218.104 313.849 218.197 313.592 218.206C313.335 218.216 313.081 218.142 312.869 217.995C312.647 217.882 312.432 217.765 312.225 217.645C312.017 217.525 311.814 217.401 311.618 217.273C311.143 216.964 311.172 216.795 311.694 216.492C313.429 215.478 315.167 214.468 316.908 213.462L322.087 210.452C322.247 210.314 322.446 210.23 322.657 210.212C322.868 210.195 323.079 210.245 323.259 210.356C323.544 210.486 323.814 210.625 324.071 210.773Z" fill="#071221"/>
<path d="M317.656 207.026C317.947 207.192 318.222 207.383 318.48 207.597C319.061 208.101 319.617 208.62 320.133 209.15C320.487 209.517 320.363 209.782 319.786 210.036C319.164 210.311 318.496 210.469 317.817 210.502C317.53 210.542 317.237 210.496 316.975 210.371C316.861 210.303 316.763 210.21 316.688 210.1C316.272 209.522 315.731 209.045 315.106 208.704C314.908 208.59 314.697 208.482 314.475 208.381C314.189 208.261 313.892 208.169 313.588 208.107C313.365 208.065 313.137 208.067 312.914 208.113C312.717 208.145 312.531 208.225 312.372 208.346C312.122 208.562 312.143 208.789 312.462 209.013C313.022 209.418 313.618 209.803 314.153 210.211C314.677 210.552 315.044 211.088 315.173 211.699C315.288 212.562 314.714 213.282 313.691 213.917C312.458 214.661 311.032 215.024 309.593 214.96C308.471 214.934 307.367 214.678 306.349 214.208C306.011 214.06 305.709 213.879 305.451 213.742C304.334 213.08 303.323 212.251 302.455 211.286C302.411 211.249 302.378 211.202 302.358 211.149C302.339 211.096 302.333 211.039 302.342 210.983C302.358 210.922 302.385 210.865 302.424 210.815C302.463 210.765 302.511 210.724 302.567 210.694C303.271 210.24 304.084 209.981 304.922 209.946C305.153 209.916 305.388 209.961 305.593 210.073C305.666 210.116 305.735 210.167 305.799 210.225C306.466 210.82 307.123 211.426 307.871 211.985C307.96 212.044 308.051 212.1 308.146 212.155C308.516 212.366 308.905 212.54 309.308 212.676C309.634 212.805 309.989 212.843 310.335 212.787C310.68 212.731 311.005 212.583 311.273 212.358C311.463 212.171 311.558 211.965 311.34 211.787C310.881 211.423 310.406 211.067 309.906 210.721C309.042 210.129 308.41 209.479 308.466 208.664C308.611 206.726 312.32 205.365 315.348 206.137C316.156 206.321 316.933 206.621 317.656 207.026Z" fill="#071221"/>
<path d="M156.14 103.226C156.098 103.334 156.018 103.422 155.915 103.474C155.782 103.547 155.635 103.593 155.483 103.608C151.914 104.093 148.282 103.466 145.081 101.813C142.26 100.185 141.221 97.9121 141.944 95.791C141.993 95.6849 142.075 95.5978 142.179 95.5433C142.309 95.472 142.453 95.4265 142.601 95.4093C146.172 94.9236 149.806 95.5514 153.008 97.207C155.824 98.8327 156.873 101.105 156.14 103.226ZM146.305 101.102C147.145 101.518 148.071 101.728 149.008 101.717C149.945 101.706 150.866 101.473 151.696 101.038C153.211 100.158 153.253 98.7599 151.789 97.9149C150.949 97.4999 150.023 97.2893 149.086 97.3004C148.149 97.3116 147.228 97.5441 146.398 97.9791C144.883 98.859 144.841 100.257 146.305 101.102" fill="#071221"/>
<path d="M151.789 97.9152C153.253 98.7602 153.21 100.159 151.696 101.039C150.866 101.474 149.945 101.706 149.008 101.717C148.071 101.728 147.145 101.518 146.305 101.103C144.841 100.258 144.883 98.8593 146.398 97.9793C147.228 97.5444 148.149 97.3119 149.086 97.3007C150.023 97.2896 150.949 97.5001 151.789 97.9152ZM148.124 100.045C148.407 100.184 148.718 100.255 149.033 100.251C149.347 100.247 149.657 100.168 149.935 100.022C150.442 99.7275 150.459 99.2555 149.969 98.9729C149.687 98.8336 149.376 98.7631 149.061 98.7672C148.747 98.7712 148.437 98.8497 148.159 98.9962C147.647 99.2934 147.63 99.7595 148.124 100.045Z" fill="#FFD420"/>
<path d="M149.97 98.973C150.459 99.2556 150.442 99.7276 149.935 100.022C149.657 100.168 149.347 100.247 149.033 100.251C148.718 100.255 148.407 100.184 148.125 100.045C147.63 99.7596 147.647 99.2935 148.159 98.9963C148.437 98.8498 148.747 98.7713 149.061 98.7673C149.376 98.7632 149.687 98.8337 149.97 98.973Z" fill="#071221"/>
<path d="M110.973 84.9181C111.315 85.1121 111.631 85.35 111.912 85.6257C111.947 85.6549 111.976 85.6914 111.995 85.7327C112.014 85.774 112.024 85.819 112.024 85.8646C112.019 85.9112 112.004 85.9561 111.98 85.9963C111.956 86.0365 111.923 86.0711 111.885 86.0977C110.859 87.0796 109.839 88.0605 108.823 89.0404C108.383 89.46 107.942 89.8796 107.507 90.302C107.473 90.3532 107.449 90.4106 107.438 90.471C107.541 90.4802 107.646 90.4822 107.75 90.4769C107.835 90.465 107.92 90.4435 108.001 90.4128C109.512 89.8796 111.025 89.3474 112.539 88.8161C113.327 88.5393 114.115 88.2625 114.903 87.9857C115.091 87.9116 115.29 87.873 115.491 87.872C115.689 87.8693 115.885 87.9039 116.07 87.974C116.351 88.0705 116.623 88.1932 116.881 88.3404C117.161 88.4976 117.415 88.6963 117.635 88.9296C117.868 89.1977 117.818 89.3201 117.362 89.4803C116.197 89.8941 115.022 90.2961 113.852 90.707C112.306 91.2489 110.765 91.7996 109.219 92.3415C107.512 92.9359 105.807 93.5312 104.103 94.1275C103.77 94.2379 103.407 94.2192 103.087 94.0751C102.754 93.9352 102.461 93.7663 102.154 93.6118C100.751 92.7786 100.927 92.764 101.857 91.8782C102.983 90.809 104.073 89.731 105.179 88.6559C105.349 88.4927 105.549 88.3354 105.699 88.1664C105.754 88.1052 105.704 88.012 105.698 87.9333C105.583 87.9471 105.469 87.9685 105.356 87.9974C102.907 88.854 100.462 89.7136 98.0221 90.576C97.8452 90.6404 97.6571 90.6682 97.4692 90.6576C97.2916 90.6547 97.1173 90.6097 96.9604 90.5265C96.6409 90.3631 96.3314 90.1948 96.0321 90.0218C95.7543 89.8614 95.4834 89.6965 95.2194 89.5271C94.9316 89.3377 94.9303 89.1047 95.1955 88.857C96.4264 87.6915 97.637 86.5144 98.8477 85.3431C99.7532 84.472 100.639 83.595 101.539 82.7267C102.029 82.2489 102.515 81.7681 103.035 81.3019C103.425 80.9465 103.596 80.929 104.186 81.1242C104.482 81.2214 104.767 81.3478 105.037 81.5017C105.307 81.6536 105.553 81.8456 105.766 82.0711C105.804 82.1003 105.836 82.1382 105.857 82.1817C105.878 82.2253 105.889 82.2732 105.888 82.3217C105.885 82.3711 105.87 82.4192 105.846 82.4626C105.822 82.5059 105.789 82.5433 105.748 82.5723C104.513 83.7523 103.292 84.9352 102.071 86.1181C101.861 86.3163 101.641 86.5144 101.441 86.7183C101.388 86.7867 101.348 86.8636 101.321 86.9456C101.468 86.9557 101.614 86.9488 101.759 86.9252C102.542 86.663 103.305 86.3833 104.083 86.1123C105.68 85.5529 107.276 84.9993 108.868 84.4369C109.029 84.3723 109.201 84.3377 109.375 84.3349C109.547 84.333 109.717 84.3627 109.878 84.4224C110.258 84.5532 110.624 84.7191 110.973 84.9181Z" fill="#071221"/>
<path d="M124.237 97.4114C123.515 98.0527 122.673 98.544 121.76 98.8565C121.552 98.9521 121.323 98.9937 121.094 98.9774C120.865 98.9611 120.644 98.8875 120.452 98.7633C120.114 98.57 119.776 98.376 119.439 98.1811C118.765 97.7918 118.091 97.4021 117.419 97.0122L114.542 95.3515C113.912 94.9873 113.841 94.999 113.547 95.503C113.072 96.3191 113.576 97.1332 114.498 97.6651C115.194 98.0519 115.975 98.2601 116.772 98.2709C117.059 98.268 117.35 98.2505 117.637 98.2243C117.849 98.1984 118.065 98.2142 118.271 98.2709C118.356 98.2961 118.439 98.3309 118.516 98.3747C118.589 98.4145 118.653 98.4684 118.705 98.5331C118.866 98.6806 118.991 98.8633 119.07 99.067C119.149 99.2707 119.179 99.4898 119.159 99.7073C119.111 100.063 118.88 100.22 118.272 100.305C116.498 100.593 114.678 100.409 112.998 99.7685C112.565 99.5938 112.144 99.3904 111.738 99.1596C111.236 98.931 110.792 98.5915 110.44 98.1666C110.088 97.7416 109.837 97.2423 109.706 96.7063C109.518 95.5001 110.07 94.4017 111.473 93.4577C112.205 92.9777 112.962 92.5362 113.74 92.1349C116.488 90.8692 119.618 90.7126 122.479 91.6978C122.83 91.833 123.17 91.9946 123.496 92.1814C124.376 92.6235 125.056 93.381 125.401 94.3026C125.544 94.8777 125.509 95.4826 125.301 96.0376C125.093 96.5926 124.722 97.0715 124.237 97.4114ZM120.809 96.0828C121.187 96.2955 121.328 96.2664 121.528 95.9691C122.076 95.1533 121.916 94.422 120.882 93.7956L120.823 93.7614C119.681 93.1614 118.354 93.0114 117.106 93.3411C116.503 93.4635 116.454 93.5625 116.878 93.8131C117.09 93.9374 117.303 94.0614 117.518 94.1851C117.946 94.4326 118.378 94.6793 118.805 94.926C119.249 95.1824 119.694 95.4414 120.139 95.6986C120.362 95.8273 120.585 95.9553 120.809 96.0827" fill="#071221"/>
<path d="M144.372 104.2C144.669 104.368 144.942 104.576 145.184 104.817C145.219 104.841 145.247 104.875 145.263 104.914C145.28 104.953 145.284 104.997 145.275 105.039C145.259 105.085 145.233 105.128 145.198 105.163C145.163 105.198 145.122 105.225 145.075 105.243L144.524 105.563C141.185 107.504 137.841 109.445 134.491 111.388C134.294 111.553 134.047 111.646 133.789 111.654C133.532 111.661 133.28 111.582 133.073 111.428C132.894 111.334 132.718 111.237 132.546 111.138C132.289 110.99 132.041 110.836 131.801 110.677C131.408 110.414 131.437 110.257 131.883 109.998L137.132 106.947L142.382 103.897C142.533 103.762 142.724 103.68 142.926 103.663C143.128 103.646 143.33 103.694 143.503 103.801C143.804 103.908 144.094 104.042 144.372 104.2Z" fill="#071221"/>
<path d="M140.071 101.773C140.322 101.917 140.564 102.075 140.798 102.245C141.197 102.533 141.117 102.655 140.651 102.926C139.713 103.477 138.771 104.019 137.828 104.567L130.298 108.943C130.097 109.104 129.849 109.197 129.592 109.206C129.335 109.216 129.081 109.142 128.869 108.995C128.647 108.882 128.432 108.765 128.225 108.645C128.017 108.525 127.814 108.401 127.618 108.273C127.143 107.964 127.172 107.795 127.694 107.492C129.429 106.478 131.167 105.468 132.908 104.462L138.087 101.452C138.247 101.314 138.446 101.23 138.657 101.212C138.868 101.195 139.079 101.245 139.259 101.356C139.544 101.486 139.814 101.625 140.071 101.773Z" fill="#071221"/>
<path d="M133.656 98.026C133.947 98.1921 134.222 98.3832 134.48 98.5971C135.061 99.1011 135.617 99.6198 136.133 100.15C136.487 100.517 136.363 100.782 135.786 101.036C135.164 101.311 134.496 101.469 133.817 101.502C133.53 101.542 133.237 101.496 132.975 101.371C132.861 101.303 132.763 101.21 132.688 101.1C132.272 100.522 131.731 100.045 131.106 99.704C130.908 99.5895 130.697 99.4818 130.475 99.3809C130.189 99.2608 129.892 99.1691 129.588 99.107C129.365 99.0652 129.137 99.0672 128.914 99.1128C128.717 99.1453 128.531 99.2253 128.372 99.3459C128.122 99.5615 128.143 99.7888 128.462 100.013C129.022 100.418 129.618 100.803 130.153 101.211C130.677 101.552 131.044 102.088 131.173 102.699C131.288 103.562 130.714 104.282 129.691 104.917C128.458 105.661 127.032 106.024 125.593 105.96C124.471 105.934 123.367 105.678 122.349 105.208C122.011 105.06 121.709 104.879 121.451 104.742C120.334 104.08 119.323 103.251 118.455 102.286C118.411 102.249 118.378 102.202 118.358 102.149C118.339 102.096 118.333 102.039 118.342 101.983C118.358 101.922 118.385 101.865 118.424 101.815C118.463 101.765 118.511 101.724 118.567 101.694C119.271 101.24 120.084 100.981 120.922 100.946C121.153 100.916 121.388 100.961 121.593 101.073C121.666 101.116 121.735 101.167 121.799 101.225C122.466 101.82 123.123 102.426 123.871 102.985C123.96 103.044 124.051 103.1 124.146 103.155C124.516 103.366 124.905 103.54 125.308 103.676C125.634 103.805 125.989 103.843 126.335 103.787C126.68 103.731 127.005 103.583 127.273 103.358C127.463 103.171 127.558 102.965 127.34 102.787C126.881 102.423 126.406 102.067 125.906 101.721C125.042 101.129 124.41 100.479 124.466 99.6635C124.611 97.726 128.32 96.3653 131.348 97.1374C132.156 97.3215 132.933 97.6207 133.656 98.026Z" fill="#071221"/>
<path d="M395.581 41.6095C395.85 41.454 396.069 41.5897 396.076 41.9045C396.071 42.0804 396.025 42.2526 395.941 42.4072C395.857 42.5617 395.737 42.6941 395.592 42.7936L395.581 42.8002C395.312 42.9557 395.094 42.82 395.086 42.5052C395.091 42.3293 395.137 42.1571 395.221 42.0026C395.305 41.848 395.425 41.7156 395.57 41.6161L395.581 41.6095Z" fill="#071221"/>
<path d="M395.575 40.4371C396.377 39.9741 397.037 40.3635 397.059 41.3148C397.044 41.8368 396.907 42.3479 396.657 42.8063C396.407 43.2648 396.052 43.6576 395.621 43.9526L395.587 43.9726C394.785 44.4356 394.125 44.0462 394.103 43.0948C394.118 42.5729 394.255 42.0618 394.505 41.6033C394.755 41.1448 395.11 40.752 395.541 40.457L395.575 40.4371ZM395.592 42.7936C395.737 42.6941 395.857 42.5617 395.941 42.4071C396.025 42.2526 396.071 42.0803 396.076 41.9045C396.069 41.5897 395.85 41.454 395.581 41.6095L395.57 41.6161C395.425 41.7155 395.305 41.848 395.221 42.0025C395.137 42.157 395.091 42.3293 395.086 42.5051C395.093 42.82 395.312 42.9557 395.581 42.8001L395.592 42.7936" fill="#FFD420"/>
<path d="M396.656 45.6856C396.81 45.5947 396.975 45.5237 397.147 45.4741L397.282 45.4847L397.327 45.635C397.327 45.7524 397.328 45.8698 397.334 45.9835C397.379 48.1183 397.423 50.2604 397.468 52.3952C397.494 52.5361 397.471 52.6816 397.404 52.8082C397.337 52.9349 397.23 53.0353 397.099 53.0932C396.969 53.1804 396.839 53.2609 396.708 53.3366C396.6 53.3984 396.493 53.457 396.384 53.5134C396.147 53.6351 396.077 53.5803 396.07 53.2978C396.047 52.1791 396.025 51.0603 395.996 49.9452C395.974 48.8265 395.952 47.7077 395.929 46.589C395.922 46.2772 395.935 46.2405 396.183 46.0234C396.33 45.8966 396.488 45.7836 396.656 45.6856Z" fill="#071221"/>
<path d="M394.345 47.1044C394.456 47.0407 394.566 46.9826 394.677 46.93C394.926 46.8156 394.971 46.8852 394.978 47.1823C394.993 47.7839 395.001 48.3818 395.015 48.9833C395.052 50.5862 395.082 52.1928 395.118 53.7957C395.141 53.9384 395.117 54.0844 395.051 54.2126C394.984 54.3408 394.879 54.4444 394.749 54.5085C394.581 54.6163 394.413 54.7203 394.242 54.8188C394.18 54.8549 394.117 54.8903 394.054 54.9249C393.773 55.0724 393.696 55.014 393.688 54.6801C393.666 53.5687 393.637 52.461 393.615 51.3569L393.548 48.0447C393.523 47.9298 393.536 47.8099 393.585 47.7031C393.635 47.5964 393.718 47.5087 393.821 47.4534C393.988 47.3261 394.163 47.2095 394.345 47.1044Z" fill="#071221"/>
<path d="M399.357 39.7236C399.395 39.7728 399.416 39.8335 399.415 39.8958C399.414 39.9791 399.397 40.0614 399.364 40.1381C398.618 42.0146 397.318 43.6191 395.636 44.7376C395.605 44.7563 395.574 44.7746 395.543 44.7925C394.004 45.6809 392.642 45.579 391.806 44.686C391.767 44.6367 391.747 44.576 391.748 44.5137C391.749 44.4304 391.766 44.3482 391.798 44.2714C392.544 42.3949 393.845 40.7905 395.526 39.672C395.557 39.6533 395.588 39.635 395.62 39.617C397.158 38.7286 398.521 38.8306 399.357 39.7236ZM395.621 43.9526C396.052 43.6576 396.407 43.2648 396.657 42.8063C396.907 42.3478 397.045 41.8367 397.059 41.3147C397.038 40.3635 396.377 39.974 395.575 40.437L395.541 40.457C395.11 40.752 394.755 41.1448 394.506 41.6033C394.256 42.0618 394.118 42.5729 394.103 43.0948C394.125 44.0462 394.786 44.4357 395.588 43.9726L395.621 43.9526" fill="#071221"/>
<path d="M381.325 54.9135C381.467 54.8295 381.621 54.7672 381.781 54.7286C381.979 54.6804 382.024 54.7353 381.98 55.0032C381.867 55.6784 381.747 56.3501 381.627 57.029C381.476 57.9246 381.319 58.8164 381.168 59.7118C380.998 60.6991 380.822 61.6827 380.652 62.6699C380.614 62.8618 380.505 63.0322 380.347 63.1476C380.187 63.2765 380.027 63.3686 379.868 63.4828L379.771 63.539C379.073 63.9422 379.106 63.8302 378.927 63.1737C378.707 62.3452 378.475 61.5315 378.248 60.7141C378.21 60.5895 378.19 60.4539 378.145 60.333L378.03 60.2746L377.966 60.4581C377.721 61.8711 377.482 63.2877 377.237 64.7007C377.221 64.8039 377.184 64.9027 377.129 64.9908C377.079 65.0772 377.009 65.1503 376.925 65.2041C376.712 65.3466 376.496 65.4808 376.28 65.6059C376.171 65.6684 376.063 65.7286 375.954 65.7865C375.788 65.875 375.666 65.8203 375.615 65.6296C375.382 64.7206 375.13 63.8226 374.884 62.9282L374.322 60.9379C374.225 60.575 374.122 60.2085 374.032 59.8346C373.96 59.5523 373.999 59.4642 374.26 59.225C374.397 59.0998 374.547 58.9894 374.707 58.8955C374.847 58.813 374.997 58.7503 375.154 58.709L375.314 58.7122L375.397 58.8477C375.643 59.7567 375.895 60.6621 376.147 61.5601C376.186 61.7214 376.225 61.8753 376.27 62.0256L376.347 62.1428L376.461 61.9223C376.543 61.4782 376.612 61.0342 376.694 60.5828C376.851 59.6616 377.015 58.7368 377.172 57.8156C377.182 57.7196 377.212 57.6269 377.261 57.5438C377.305 57.459 377.366 57.384 377.439 57.3233C377.622 57.1592 377.821 57.0142 378.033 56.8904C378.208 56.7878 378.395 56.7055 378.589 56.6451L378.736 56.6557L378.819 56.7839C379.02 57.5352 379.226 58.2904 379.427 59.0417C379.517 59.3643 379.601 59.6906 379.692 60.0131L379.762 60.0899L379.845 59.9393L379.883 59.7998C380.034 58.9263 380.185 58.0529 380.336 57.1721C380.412 56.717 380.493 56.2582 380.569 55.8105C380.583 55.6978 380.619 55.5891 380.677 55.4911C380.727 55.3922 380.799 55.3056 380.887 55.2374C381.021 55.1144 381.168 55.0058 381.325 54.9135Z" fill="#071221"/>
<path d="M387.77 53.7247C387.889 54.2462 387.902 54.7864 387.807 55.3129C387.796 55.4404 387.753 55.5631 387.683 55.6702C387.613 55.7773 387.518 55.8654 387.405 55.9266C386.837 56.2694 386.275 56.6011 385.714 56.9402C385.177 57.2645 384.641 57.5888 384.105 57.9131C383.754 58.1231 383.741 58.1599 383.908 58.4309C384.178 58.8666 384.701 58.8436 385.205 58.5526C385.598 58.3164 385.926 57.9847 386.157 57.5882C386.233 57.4486 386.303 57.298 386.366 57.1584C386.413 57.0475 386.48 56.9464 386.564 56.8607C386.601 56.8216 386.644 56.7877 386.691 56.76C386.728 56.7372 386.77 56.7225 386.813 56.717C386.929 56.6762 387.053 56.6627 387.175 56.6777C387.297 56.6926 387.414 56.7355 387.517 56.8031C387.677 56.9163 387.696 57.0666 387.569 57.3898C387.225 58.3325 386.639 59.1679 385.869 59.812C385.644 59.9945 385.405 60.16 385.155 60.3069C384.91 60.4781 384.632 60.5946 384.338 60.6484C384.045 60.7021 383.743 60.6919 383.454 60.6184C383.113 60.4834 382.823 60.2461 382.623 59.9392C382.423 59.6323 382.322 59.2709 382.336 58.9048C382.298 58.4228 382.286 57.9392 382.3 57.4559C382.435 55.7731 383.214 54.2072 384.475 53.0846C384.65 52.9388 384.838 52.8078 385.035 52.6929C385.484 52.402 386.021 52.2801 386.551 52.3488C386.871 52.4257 387.159 52.599 387.377 52.845C387.595 53.0911 387.732 53.3981 387.77 53.7247ZM386.181 55.046C386.386 54.9208 386.411 54.8473 386.321 54.6715C386.064 54.1953 385.661 54.0754 385.067 54.4182C384.447 54.8081 384 55.4213 383.818 56.1311C383.711 56.4579 383.749 56.5091 383.985 56.3728C384.343 56.159 384.7 55.9379 385.064 55.7204C385.435 55.4993 385.805 55.2782 386.181 55.046" fill="#071221"/>
<path d="M390.717 49.2659C390.857 49.1845 391.002 49.1134 391.153 49.0531C391.562 48.9053 391.971 48.7647 392.373 48.6572C392.648 48.5794 392.744 48.7075 392.713 49.0561C392.679 49.4316 392.576 49.7975 392.409 50.1354C392.349 50.288 392.244 50.4189 392.108 50.5113C392.044 50.5475 391.972 50.5699 391.899 50.577C391.524 50.628 391.164 50.755 390.841 50.9502C390.705 51.0287 390.575 51.1149 390.449 51.2084C390.31 51.3153 390.181 51.4361 390.066 51.569C389.988 51.6652 389.928 51.7747 389.888 51.8923C389.851 51.9993 389.84 52.114 389.857 52.2262C389.896 52.3948 390.011 52.4458 390.209 52.3536C390.561 52.1875 390.912 51.9994 391.263 51.8407C391.574 51.6772 391.935 51.6394 392.273 51.7352C392.728 51.9063 392.934 52.3753 392.961 53.0355C392.995 53.8363 392.786 54.6286 392.36 55.3078C392.037 55.846 391.61 56.3148 391.104 56.6869C390.938 56.8121 390.766 56.9116 390.625 57.0001C389.992 57.3714 389.308 57.6477 388.594 57.8201C388.564 57.8285 388.532 57.8302 388.501 57.8253C388.47 57.8203 388.441 57.8087 388.415 57.7913C388.39 57.7678 388.37 57.7394 388.357 57.7079C388.344 57.6763 388.337 57.6423 388.338 57.6081C388.306 57.1452 388.399 56.6823 388.609 56.2684C388.662 56.1417 388.754 56.0353 388.872 55.9647C388.908 55.9441 388.946 55.9263 388.985 55.9115C389.464 55.7451 389.943 55.5787 390.423 55.3609C390.464 55.3394 390.505 55.3168 390.546 55.293C390.764 55.1656 390.968 55.0169 391.156 54.849C391.307 54.725 391.422 54.5629 391.489 54.3795C391.556 54.1961 391.573 53.9982 391.537 53.8062C391.499 53.6669 391.415 53.5681 391.275 53.6272C390.968 53.7528 390.661 53.8857 390.355 54.0406C390.154 54.1868 389.92 54.2788 389.673 54.3077C389.427 54.3367 389.177 54.3016 388.948 54.2059C388.026 53.6289 388.371 51.4674 389.577 50.1984C389.908 49.8328 390.293 49.5185 390.717 49.2659Z" fill="#071221"/>
<defs>
<linearGradient id="paint0_linear_267_2870" x1="264.446" y1="169.265" x2="256.531" y2="159.14" gradientUnits="userSpaceOnUse">
<stop stop-color="#DCDCDC"/>
<stop offset="0.635" stop-color="#F5F5F5"/>
</linearGradient>
<linearGradient id="paint1_linear_267_2870" x1="169.177" y1="228.893" x2="164.728" y2="221.837" gradientUnits="userSpaceOnUse">
<stop stop-color="#C6CDD1"/>
<stop offset="0.635" stop-color="#DFE6EA"/>
</linearGradient>
<linearGradient id="paint2_linear_267_2870" x1="358.179" y1="67.804" x2="407.865" y2="36.6265" gradientUnits="userSpaceOnUse">
<stop stop-color="#D6D6D6"/>
<stop offset="1" stop-color="#E8E8E8"/>
</linearGradient>
<linearGradient id="paint3_linear_267_2870" x1="130.693" y1="156.589" x2="136.371" y2="152.951" gradientUnits="userSpaceOnUse">
<stop stop-color="#9FA5A9"/>
<stop offset="0.635" stop-color="#ADB4B8"/>
</linearGradient>
<linearGradient id="paint4_linear_267_2870" x1="207.12" y1="237.581" x2="214.239" y2="232.943" gradientUnits="userSpaceOnUse">
<stop stop-color="#ADB4B8"/>
<stop offset="0.635" stop-color="#C6CDD1"/>
</linearGradient>
<linearGradient id="paint5_linear_267_2870" x1="274.128" y1="223.528" x2="223.873" y2="234.54" gradientUnits="userSpaceOnUse">
<stop stop-color="#949B9F"/>
<stop offset="0.635" stop-color="#ADB4B8"/>
</linearGradient>
<linearGradient id="paint6_linear_267_2870" x1="200.122" y1="177.637" x2="230.534" y2="125.963" gradientUnits="userSpaceOnUse">
<stop stop-color="#EEEEEE"/>
<stop offset="0.635" stop-color="#EDF0F1"/>
</linearGradient>
<linearGradient id="paint7_linear_267_2870" x1="398.529" y1="117.081" x2="415.957" y2="92.0695" gradientUnits="userSpaceOnUse">
<stop stop-color="#EDEDED"/>
<stop offset="1" stop-color="#F2F8FC"/>
</linearGradient>
<linearGradient id="paint8_linear_267_2870" x1="322.027" y1="71.8912" x2="339.184" y2="52.9682" gradientUnits="userSpaceOnUse">
<stop stop-color="#EAEAEA"/>
<stop offset="1" stop-color="#F7FCFF"/>
</linearGradient>
<linearGradient id="paint9_linear_267_2870" x1="121.425" y1="236.481" x2="128.98" y2="245.171" gradientUnits="userSpaceOnUse">
<stop stop-color="#D3DADE"/>
<stop offset="0.079658" stop-color="#DCE4E8"/>
<stop offset="0.2915" stop-color="#2A5A72"/>
<stop offset="1" stop-color="#999EA1"/>
</linearGradient>
<linearGradient id="paint10_linear_267_2870" x1="210.172" y1="138.871" x2="226.236" y2="172.521" gradientUnits="userSpaceOnUse">
<stop stop-color="#E1E1E1"/>
<stop offset="0.4957" stop-color="#ECF1F4"/>
<stop offset="0.8717" stop-color="#F1F8FC"/>
<stop offset="1" stop-color="#DADADA"/>
</linearGradient>
<linearGradient id="paint11_linear_267_2870" x1="193.779" y1="186.836" x2="209.14" y2="191.857" gradientUnits="userSpaceOnUse">
<stop stop-color="#303E42"/>
<stop offset="0.5588" stop-color="white"/>
<stop offset="1" stop-color="#303E42"/>
</linearGradient>
<linearGradient id="paint12_linear_267_2870" x1="121.42" y1="236.481" x2="128.975" y2="245.171" gradientUnits="userSpaceOnUse">
<stop stop-color="#D3DADE"/>
<stop offset="0.079658" stop-color="#DCE4E8"/>
<stop offset="0.2915" stop-color="#676767"/>
<stop offset="1" stop-color="#999EA1"/>
</linearGradient>
</defs>
</svg>
