<svg width="386" height="182" viewBox="0 0 386 182" fill="none" xmlns="http://www.w3.org/2000/svg">
<path d="M328 64.6366C351.801 64.6366 372.784 52.8748 385.167 34.988C385.709 34.2034 386 33.2722 386 32.3183C386 31.3644 385.709 30.4332 385.167 29.6486C372.784 11.7618 351.801 0 328 0C304.199 0 283.216 11.7618 270.833 29.6486C270.291 30.4332 270 31.3644 270 32.3183C270 33.2722 270.291 34.2034 270.833 34.988C283.216 52.8748 304.199 64.6366 328 64.6366Z" fill="#071221"/>
<path d="M327.999 54.6888C340.353 54.6888 350.368 44.6736 350.368 32.3192C350.368 19.9649 340.353 9.94971 327.999 9.94971C315.645 9.94971 305.629 19.9649 305.629 32.3192C305.629 44.6736 315.645 54.6888 327.999 54.6888Z" fill="#FFD420"/>
<path d="M328 39.835C332.151 39.835 335.517 36.4697 335.517 32.3184C335.517 28.1671 332.151 24.8018 328 24.8018C323.849 24.8018 320.483 28.1671 320.483 32.3184C320.483 36.4697 323.849 39.835 328 39.835Z" fill="#071221"/>
<path d="M86.3782 181.376C74.3639 181.209 75.0096 180.401 72.4923 170.372C69.4606 158.294 66.2136 146.269 63.0777 134.217C62.5952 132.362 62.3205 130.445 61.7191 128.634C61.5011 127.977 60.6084 127.545 60.0236 127.01C59.6127 127.583 59.2742 128.204 59.0158 128.86C54.8984 144.836 50.8076 160.819 46.7435 176.809C46.5045 177.921 45.8959 178.919 45.0168 179.641C44.1377 180.362 43.0401 180.765 41.9029 180.782C37.0192 181.067 32.1233 181.072 27.2391 180.797C24.6582 180.649 22.9392 179.027 22.239 176.201C18.9628 162.976 15.5445 149.787 12.1306 136.597C9.59656 126.806 6.97413 117.038 4.42475 107.252C3.02901 101.894 1.5997 96.5407 0.379626 91.1416C-0.541953 87.0634 0.0502545 86.2356 3.99115 85.2124C8.45318 84.0537 13.1468 84.1343 17.5664 85.4453C18.4509 85.6313 19.2614 86.0728 19.8973 86.7151C20.5332 87.3574 20.9666 88.1723 21.1437 89.0586C24.5194 102.369 27.9777 115.658 31.4035 128.955C31.9872 131.221 32.4948 133.508 33.1402 135.756C33.4401 136.491 33.8216 137.189 34.2777 137.839C34.8654 137.196 35.7817 136.644 35.9878 135.897C37.3729 130.871 38.5911 125.801 39.8934 120.752C42.5794 110.34 45.3267 99.944 47.9487 89.5161C48.1195 88.4662 48.6145 87.496 49.3644 86.7416C50.1143 85.9872 51.0814 85.4864 52.1303 85.3093C57.8557 83.9597 63.824 84.028 69.5171 85.5082C70.3528 85.6871 71.1166 86.1102 71.7114 86.7239C72.3062 87.3376 72.7054 88.1141 72.8582 88.955C75.6482 100.002 78.4614 111.043 81.2976 122.079C82.5067 126.822 83.6847 131.573 84.9313 136.306C85.1742 136.846 85.5007 137.344 85.8987 137.781C86.3858 137.428 86.834 137.024 87.2358 136.576C87.5193 136.124 87.7159 135.623 87.8155 135.099C90.3518 125.203 92.8814 115.305 95.4041 105.406C96.7242 100.249 98.0807 95.1004 99.3879 89.9397C99.5957 88.7306 100.177 87.6172 101.051 86.7561C101.925 85.8949 103.047 85.3295 104.259 85.1393C108.735 84.0649 113.415 84.1895 117.828 85.5007C120.772 86.4368 121.448 87.4966 120.692 90.5092C118.775 98.1484 116.742 105.759 114.783 113.387C112.188 123.494 109.634 133.611 107.035 143.716C104.172 154.849 101.293 165.979 98.3986 177.104C97.771 179.531 95.8525 180.497 93.7002 180.837C91.2912 181.217 88.8215 181.213 86.3782 181.376Z" fill="#071221"/>
<path d="M175.846 143.281C167.746 143.28 159.646 143.281 151.546 143.282C146.197 143.287 146.016 143.648 148.434 148.366C155.044 161.26 173.271 162.887 182.254 154.77C183.457 153.572 184.567 152.284 185.574 150.918C186.315 149.863 187.38 149.08 188.608 148.688C189.836 148.296 191.158 148.318 192.372 148.749C196.409 149.824 200.043 152.055 202.83 155.166C205.233 157.887 205.403 159.917 203.433 162.973C197.223 172.606 188.465 178.844 177.206 180.66C164.174 182.761 151.656 181.088 140.929 172.452C131.343 164.734 125.662 154.759 124.761 142.43C124.35 136.261 124.33 130.073 124.7 123.901C125.701 105.347 140.31 88.8726 158.541 85.2902C169.43 83.2402 180.688 85.5613 189.878 91.7509C199.068 97.9406 205.45 107.501 207.643 118.362C208.928 125.127 209.555 131.874 207.671 138.601C206.657 142.218 205.173 143.252 201.426 143.27C192.9 143.31 184.373 143.282 175.846 143.281ZM166.5 122.962C172.142 122.962 177.785 123.009 183.427 122.943C186.551 122.907 186.97 122.124 185.645 119.235C181.992 111.268 175.991 106.749 167.035 106.569C157.947 106.387 151.703 110.721 147.745 118.698C146.106 122.001 146.617 122.931 150.211 122.956C155.641 122.993 161.07 122.966 166.5 122.962Z" fill="#071221"/>
<path d="M249.259 181.303C238.863 181.037 228.556 179.312 218.641 176.178C217.593 175.924 216.654 175.34 215.963 174.512C215.273 173.684 214.866 172.656 214.803 171.58C214.285 166.219 215.914 160.872 219.332 156.71C220.869 154.82 222.767 154.649 225.086 155.126C232.268 156.602 239.453 158.192 246.718 159.085C250.44 159.343 254.179 159.023 257.803 158.134C262.677 157.177 265.153 152.679 263.843 147.881C263.282 145.827 262.165 143.97 259.957 143.619C255.358 142.888 250.724 142.315 246.083 141.931C238.119 141.271 230.717 139.26 225.022 133.284C211.485 119.08 217.285 94.4062 235.761 87.5563C243.335 84.5247 251.605 83.6687 259.64 85.0848C265.788 86.2794 271.911 87.6753 277.952 89.3234C282.134 90.4644 283.574 92.8217 282.969 96.9694C282.44 101.121 280.728 105.032 278.037 108.237C275.754 110.896 273.641 111.334 270.324 109.988C263.403 107.103 255.858 106.035 248.408 106.886C246.41 107.168 244.464 107.738 242.629 108.577C241.419 109.161 240.433 110.125 239.822 111.322C239.212 112.519 239.01 113.883 239.249 115.205C239.755 117.71 241.479 119.216 244.489 119.531C249.785 120.086 255.115 120.37 260.387 121.088C265.93 121.711 271.182 123.898 275.529 127.393C282.302 133.007 285.154 140.429 285.432 149.043C285.736 158.512 282.838 166.681 275.655 173.052C270.198 177.893 263.568 180.087 256.46 180.948C253.928 181.254 251.353 181.209 249.259 181.303Z" fill="#071221"/>
<path d="M295.727 132.755C295.729 118.681 295.731 104.608 295.733 90.5341C295.737 86.5858 296.184 85.5504 299.995 85.1093C304.313 84.6163 308.672 84.6089 312.991 85.087C316.778 85.5066 317.35 86.6736 317.359 90.4801C317.377 98.1565 317.363 105.833 317.363 113.509C317.364 133.98 317.365 154.451 317.366 174.921C317.366 179.578 316.267 180.884 311.663 181.11C308.15 181.287 304.63 181.281 301.117 181.092C296.858 180.856 295.733 179.532 295.729 175.295C295.718 161.115 295.717 146.935 295.727 132.755Z" fill="#071221"/>
<path d="M331.758 133.095C331.755 118.821 331.756 104.547 331.76 90.2729C331.763 86.2692 331.944 85.8703 335.802 85.0618C340.604 83.9932 345.593 84.1019 350.344 85.3788C351.137 85.513 351.851 85.9423 352.341 86.5804C352.831 87.2185 353.061 88.0183 352.986 88.8193C352.989 90.3105 352.957 91.8017 352.957 93.2929C352.954 120.562 352.951 147.832 352.949 175.101C352.948 179.848 351.989 180.959 347.225 181.138C343.608 181.287 339.986 181.247 336.372 181.018C332.766 180.777 331.772 179.539 331.767 175.916C331.75 161.642 331.747 147.369 331.758 133.095Z" fill="#071221"/>
</svg>
