<svg width="1462" height="848" viewBox="0 0 1462 848" fill="none" xmlns="http://www.w3.org/2000/svg">
<path opacity="0.5" d="M745.107 349.263L745.041 349.381L773.769 399.14L773.842 399.265L831.148 399.265L859.738 448.775L859.811 448.893L917.406 448.893L946.055 399.265L1003.09 399.265L1031.6 448.65L1003.09 498.042L945.773 498.042L917.045 547.794L916.979 547.919L945.635 597.547L917.117 646.939L860.087 646.939L831.503 597.422L831.437 597.304L773.842 597.304L745.192 646.939L687.879 646.939L659.144 696.691L659.079 696.81L687.801 746.569L687.879 746.694L745.468 746.694L774.125 697.053L831.148 697.053L859.666 746.451L831.075 795.961L831.01 796.082L859.738 845.835L859.811 845.956L917.406 845.956L946.121 796.203L946.193 796.082L917.544 746.451L946.055 697.053L1003.37 697.053L1032.09 647.3L1032.16 647.188L1003.51 597.547L1032.02 548.162L1089.05 548.162L1117.57 597.547L1088.98 647.063L1088.91 647.188L1117.64 696.934L1117.7 697.053L1175.3 697.053L1204.02 647.3L1204.09 647.188L1175.44 597.547L1203.96 548.162L1261.27 548.162L1289.92 498.528L1346.95 498.528L1375.54 548.037L1375.6 548.162L1433.2 548.162L1461.93 498.403L1462 498.284L1433.27 448.532L1433.2 448.414L1375.89 448.414L1347.3 398.897L1347.24 398.779L1289.64 398.779L1260.99 448.414L1203.67 448.414L1175.01 498.042L1117.99 498.042L1089.47 448.65L1117.99 399.265L1175.3 399.265L1204.02 349.512L1204.09 349.381L1175.44 299.753L1203.96 250.368L1260.99 250.368L1289.57 299.877L1289.64 300.003L1347.23 300.003L1375.89 250.368L1433.2 250.368L1461.93 200.615L1461.99 200.49L1433.27 150.731L1433.2 150.613L1375.6 150.613L1346.95 200.247L1289.92 200.247L1261.41 150.856L1289.99 101.346L1290.06 101.221L1261.34 51.4685L1261.27 51.3502L1203.67 51.3502L1174.94 101.096L1174.87 101.221L1203.53 150.856L1175.01 200.247L1117.7 200.247L1088.98 250L1088.91 250.125L1117.57 299.753L1089.05 349.144L1032.02 349.144L1003.51 299.753L1032.09 250.243L1032.16 250.118L1003.43 200.365L1003.37 200.247L945.773 200.247L917.045 250L916.979 250.118L945.635 299.753L917.117 349.144L860.087 349.144L831.503 299.628L831.437 299.509L773.842 299.509L745.107 349.263ZM745.192 746.201L688.155 746.201L659.644 696.81L688.155 647.425L745.192 647.425L764.193 680.35L773.704 696.81L745.192 746.201ZM774.125 696.567L755.117 663.648L745.613 647.188L774.125 597.79L831.148 597.79L859.666 647.188L840.658 680.107L831.148 696.567L774.125 696.567ZM945.635 796.082L917.117 845.467L860.087 845.467L831.581 796.082L860.087 746.694L917.117 746.694L945.635 796.082ZM917.117 746.201L860.087 746.201L831.581 696.81L850.589 663.884L860.087 647.425L917.117 647.425L936.131 680.35L945.635 696.81L917.117 746.201ZM1031.6 647.188L1003.09 696.567L946.055 696.567L927.048 663.648L917.544 647.188L946.055 597.79L1003.09 597.79L1031.6 647.188ZM1003.09 597.304L946.055 597.304L917.544 547.919L946.055 498.528L1003.09 498.528L1022.09 531.453L1031.6 547.919L1003.09 597.304ZM1203.53 647.188L1175.01 696.567L1117.99 696.567L1089.47 647.188L1117.99 597.79L1175.01 597.79L1203.53 647.188ZM1432.92 448.893L1461.44 498.284L1432.92 547.67L1375.89 547.67L1347.37 498.284L1366.38 465.359L1375.89 448.893L1432.92 448.893ZM1289.92 399.265L1346.95 399.265L1375.47 448.65L1356.46 481.575L1346.95 498.042L1289.92 498.042L1270.91 465.109L1261.41 448.65L1289.92 399.265ZM1203.96 448.893L1260.99 448.893L1279.99 481.825L1289.5 498.284L1260.99 547.67L1203.96 547.67L1184.94 514.744L1175.44 498.284L1203.96 448.893ZM1175.01 498.528L1194.02 531.453L1203.53 547.919L1175.01 597.304L1117.99 597.304L1089.47 547.919L1108.49 514.994L1117.99 498.528L1175.01 498.528ZM1117.57 498.284L1098.55 531.204L1089.05 547.669L1032.02 547.669L1013.01 514.744L1003.51 498.284L1032.02 448.893L1089.05 448.893L1117.57 498.284ZM1375.89 151.099L1432.92 151.099L1461.43 200.49L1432.92 249.882L1375.89 249.882L1356.88 216.949L1347.37 200.49L1375.89 151.099ZM1346.95 200.733L1365.96 233.659L1375.47 250.125L1346.95 299.51L1289.92 299.51L1261.41 250.125L1280.42 217.193L1289.92 200.733L1346.95 200.733ZM1175.44 101.221L1203.96 51.8359L1260.99 51.8359L1289.5 101.221L1260.99 150.613L1203.96 150.613L1175.44 101.221ZM1203.96 151.098L1260.99 151.098L1289.5 200.49L1270.49 233.416L1260.99 249.882L1203.96 249.882L1184.94 216.949L1175.44 200.49L1203.96 151.098ZM1089.47 250.125L1117.99 200.733L1175.01 200.733L1194.02 233.659L1203.53 250.125L1175.01 299.51L1117.99 299.51L1089.47 250.125ZM1117.99 300.003L1175.01 300.003L1203.53 349.381L1175.01 398.779L1117.99 398.779L1098.98 365.853L1089.47 349.381L1117.99 300.003ZM1089.05 349.637L1108.06 382.556L1117.57 399.016L1089.05 448.414L1032.02 448.414L1003.51 399.016L1022.52 366.096L1032.02 349.637L1089.05 349.637ZM917.544 250.118L946.055 200.733L1003.09 200.733L1031.6 250.118L1003.09 299.51L946.055 299.51L917.544 250.118ZM946.055 300.002L1003.09 300.002L1031.6 349.381L1012.59 382.313L1003.09 398.779L946.055 398.779L927.048 365.853L917.544 349.381L946.055 300.002ZM917.117 349.637L936.131 382.556L945.635 399.016L917.117 448.414L860.087 448.414L831.581 399.016L850.589 366.096L860.087 349.637L917.117 349.637ZM831.148 300.002L859.666 349.381L840.658 382.313L831.148 398.779L774.125 398.779L745.613 349.381L774.125 300.002L831.148 300.002Z" fill="#071221"/>
<path opacity="0.5" d="M28.7285 399.114L28.801 399.239L86.1138 399.239L114.698 448.748L114.763 448.873L172.365 448.873L201.015 399.239L258.327 399.239L286.984 349.604L344.014 349.604L372.525 398.989L344.014 448.38L286.701 448.38L257.979 498.133L257.907 498.258L286.557 547.893L258.051 597.278L201.015 597.278L172.431 547.774L172.365 547.643L114.77 547.643L86.1136 597.278L28.8009 597.278L0.0722733 647.03L0.0063892 647.155L28.7284 696.908L28.801 697.033L86.3962 697.033L115.052 647.398L172.082 647.398L200.594 696.79L172.01 746.299L171.938 746.418L200.66 796.177L200.732 796.295L258.327 796.295L287.056 746.542L287.128 746.418L258.465 696.79L286.984 647.398L344.296 647.398L373.018 597.646L373.09 597.52L344.434 547.893L372.946 498.501L429.983 498.501L458.488 547.893L429.911 597.402L429.838 597.527L458.567 647.28L458.632 647.398L516.227 647.398L544.956 597.646L545.022 597.527L516.365 547.893L544.877 498.501L601.914 498.501L630.498 548.011L630.563 548.135L688.158 548.135L716.887 498.376L716.96 498.258L688.231 448.505L688.158 448.38L630.853 448.38L602.262 398.871L602.19 398.746L544.595 398.746L515.945 448.38L458.915 448.38L430.403 398.989L458.915 349.604L516.227 349.604L544.956 299.851L545.021 299.727L516.365 250.092L544.877 200.707L601.914 200.707L630.498 250.216L630.563 250.342L688.159 250.342L716.815 200.707L774.128 200.707L802.856 150.954L802.922 150.829L774.2 101.07L774.128 100.952L716.526 100.952L687.876 150.587L630.852 150.587L602.334 101.195L630.918 51.6851L630.99 51.5599L602.262 1.80749L602.19 1.68906L544.594 1.68906L515.872 51.4354L515.807 51.5599L544.457 101.195L515.945 150.586L458.632 150.586L429.91 200.339L429.838 200.457L458.488 250.092L429.983 299.483L372.946 299.483L344.434 250.092L373.018 200.582L373.09 200.457L344.361 150.704L344.296 150.586L286.701 150.586L257.979 200.339L257.906 200.457L286.557 250.092L258.051 299.483L200.732 299.483L172.082 349.118L115.045 349.118L86.4683 299.608L86.3964 299.483L28.8011 299.483L0.0725333 349.243L0.000559061 349.36L28.7285 399.114ZM86.1137 696.54L29.0834 696.54L0.571442 647.155L29.0834 597.763L86.1137 597.763L105.121 630.689L114.625 647.155L86.1137 696.54ZM115.052 646.906L96.0441 613.986L86.5341 597.521L115.052 548.135L172.082 548.135L200.594 597.521L181.58 630.446L172.082 646.906L115.052 646.906ZM286.556 746.418L258.051 795.806L201.015 795.806L172.503 746.418L201.015 697.033L258.051 697.033L286.556 746.418ZM258.051 696.54L201.015 696.54L172.503 647.155L191.518 614.23L201.015 597.763L258.051 597.763L277.059 630.689L286.557 647.155L258.051 696.54ZM372.525 597.521L344.014 646.906L286.984 646.906L267.976 613.986L258.466 597.521L286.984 548.135L344.014 548.135L372.525 597.521ZM344.014 547.643L286.984 547.643L258.465 498.258L286.984 448.873L344.014 448.873L363.022 481.792L372.525 498.258L344.014 547.643ZM544.456 597.527L515.945 646.906L458.915 646.906L430.403 597.527L458.915 548.135L515.945 548.135L544.456 597.527ZM687.883 448.873L716.395 498.258L687.882 547.643L630.852 547.643L602.334 498.258L621.342 465.332L630.852 448.873L687.883 448.873ZM544.877 399.232L601.914 399.232L630.425 448.623L611.411 481.549L601.914 498.008L544.877 498.008L525.869 465.09L516.365 448.623L544.877 399.232ZM515.945 448.873L534.952 481.792L544.456 498.258L515.945 547.643L458.915 547.643L430.403 498.258L449.411 465.332L458.915 448.873L515.945 448.873ZM458.488 448.623L439.48 481.549L429.982 498.008L372.945 498.008L353.938 465.09L344.434 448.623L372.946 399.232L429.983 399.232L458.488 448.623ZM716.815 101.437L773.845 101.437L802.357 150.829L773.845 200.22L716.815 200.22L697.807 167.295L688.296 150.829L716.815 101.437ZM687.876 151.079L706.884 183.998L716.388 200.457L687.876 249.848L630.852 249.848L602.334 200.457L621.342 167.539L630.852 151.079L687.876 151.079ZM516.366 51.5599L544.877 2.17472L601.914 2.17472L630.425 51.5599L601.914 100.952L544.877 100.952L516.366 51.5599ZM544.877 101.437L601.914 101.437L630.425 150.829L611.411 183.755L601.914 200.22L544.877 200.22L525.869 167.295L516.365 150.829L544.877 101.437ZM430.403 200.457L458.915 151.079L515.945 151.079L534.952 183.998L544.456 200.457L515.945 249.848L458.915 249.848L430.403 200.457ZM458.915 250.341L515.945 250.341L544.457 299.727L515.945 349.118L458.915 349.118L439.907 316.186L430.403 299.726L458.915 250.341ZM429.983 299.976L448.991 332.895L458.488 349.361L429.983 398.746L372.946 398.746L344.434 349.361L363.448 316.435L372.946 299.976L429.983 299.976ZM258.465 200.457L286.984 151.079L344.014 151.079L372.525 200.457L344.014 249.848L286.984 249.848L258.465 200.457ZM286.984 250.341L344.014 250.341L372.525 299.727L353.511 332.652L344.014 349.118L286.984 349.118L267.976 316.192L258.466 299.727L286.984 250.341ZM201.015 299.976L258.051 299.976L277.059 332.902L286.557 349.361L258.051 398.746L201.015 398.746L182.007 365.82L172.503 349.361L201.015 299.976ZM172.082 349.604L191.091 382.53L200.594 398.989L172.082 448.38L115.045 448.38L86.534 398.988L105.548 366.07L115.045 349.604L172.082 349.604ZM29.0768 299.976L86.1138 299.976L114.625 349.361L95.611 382.287L86.1138 398.746L29.0768 398.746L0.571481 349.361L29.0768 299.976Z" fill="#071221"/>
<path d="M28.9345 400.946C29.1961 400.947 29.4551 400.896 29.6965 400.795L57.3738 448.748L57.4465 448.873L114.759 448.873L142.39 496.728C142.149 496.904 141.953 497.134 141.816 497.4C141.68 497.666 141.606 497.959 141.603 498.258C141.602 498.515 141.653 498.769 141.751 499.006C141.849 499.244 141.994 499.459 142.176 499.64C142.357 499.822 142.573 499.965 142.811 500.063C143.048 500.16 143.303 500.21 143.56 500.209C144.031 500.207 144.486 500.032 144.837 499.717C145.188 499.402 145.411 498.969 145.465 498.501L201.01 498.501L229.666 448.873L284.93 448.873C284.989 449.365 285.235 449.816 285.617 450.133C285.999 450.45 286.487 450.608 286.982 450.576C287.477 450.545 287.941 450.324 288.279 449.961C288.617 449.598 288.803 449.119 288.798 448.623C288.796 448.325 288.722 448.031 288.584 447.766C288.446 447.501 288.247 447.273 288.003 447.1L315.635 399.239L372.659 399.232L401.177 448.623L373.565 496.452C373.289 496.336 372.989 496.285 372.69 496.305C372.39 496.324 372.1 496.413 371.84 496.564C371.581 496.714 371.361 496.924 371.196 497.174C371.031 497.425 370.927 497.711 370.892 498.008L315.353 498.008L287.597 546.086C287.361 545.989 287.109 545.938 286.854 545.935C286.335 545.933 285.837 546.136 285.468 546.5C285.099 546.865 284.89 547.361 284.886 547.88C284.883 548.398 285.085 548.897 285.449 549.266C285.813 549.636 286.309 549.846 286.828 549.85C287.092 549.849 287.353 549.795 287.597 549.692L315.209 597.521L287.597 645.355C287.321 645.236 287.022 645.183 286.722 645.201C286.423 645.219 286.131 645.307 285.872 645.457C285.613 645.608 285.392 645.818 285.229 646.069C285.065 646.321 284.963 646.607 284.93 646.906L229.666 646.906L201.082 597.402L201.01 597.278L143.422 597.278L115.665 645.355C115.431 645.253 115.179 645.199 114.923 645.198C114.449 645.198 113.991 645.372 113.637 645.686C113.282 646.001 113.055 646.435 112.998 646.906L57.4526 646.906L28.7239 696.665L28.6519 696.79L56.4282 744.887C56.1876 745.061 55.9911 745.289 55.8542 745.552C55.7173 745.816 55.644 746.108 55.64 746.404C55.6318 746.902 55.815 747.383 56.1517 747.749C56.4885 748.115 56.9529 748.337 57.449 748.37C57.9452 748.403 58.435 748.244 58.8171 747.926C59.1992 747.607 59.4444 747.155 59.5019 746.661L115.048 746.661L143.704 697.033L198.961 697.033C199.017 697.5 199.24 697.93 199.589 698.246C199.938 698.561 200.389 698.739 200.859 698.747C201.125 698.745 201.388 698.692 201.634 698.589L229.246 746.418L200.655 795.931L200.59 796.055L228.36 844.153C228.119 844.327 227.923 844.555 227.786 844.818C227.649 845.082 227.575 845.374 227.571 845.67C227.563 846.168 227.747 846.65 228.084 847.016C228.421 847.382 228.886 847.605 229.382 847.638C229.879 847.671 230.369 847.513 230.752 847.195C231.135 846.877 231.381 846.424 231.44 845.93L286.979 845.93L315.708 796.177L315.78 796.055L288.003 747.948C288.249 747.776 288.449 747.546 288.588 747.28C288.726 747.014 288.798 746.718 288.798 746.418C288.798 746.118 288.726 745.822 288.588 745.555C288.449 745.289 288.249 745.06 288.003 744.887L315.635 697.033L370.892 697.033C370.95 697.526 371.195 697.978 371.576 698.296C371.957 698.614 372.446 698.774 372.941 698.743C373.437 698.712 373.902 698.492 374.24 698.129C374.578 697.766 374.765 697.286 374.76 696.79C374.758 696.49 374.684 696.195 374.546 695.93C374.408 695.664 374.21 695.434 373.966 695.259L401.67 647.28L401.742 647.155L373.966 599.051C374.211 598.878 374.412 598.649 374.55 598.383C374.688 598.116 374.76 597.821 374.76 597.521C374.76 597.22 374.688 596.925 374.55 596.659C374.412 596.392 374.211 596.163 373.966 595.99L401.604 548.135L458.628 548.135L486.26 595.991C486.016 596.164 485.817 596.394 485.68 596.66C485.543 596.926 485.471 597.221 485.471 597.521C485.471 597.82 485.543 598.115 485.68 598.381C485.817 598.647 486.016 598.877 486.26 599.051L458.562 647.037L458.483 647.162L486.26 695.259C486.017 695.433 485.819 695.662 485.682 695.927C485.545 696.191 485.473 696.485 485.471 696.783C485.471 697.041 485.521 697.296 485.619 697.534C485.717 697.772 485.861 697.988 486.043 698.171C486.225 698.353 486.441 698.498 486.678 698.597C486.916 698.696 487.171 698.747 487.429 698.747C487.9 698.743 488.354 698.566 488.705 698.25C489.056 697.934 489.279 697.502 489.333 697.033L544.872 697.033L572.635 648.961C572.874 649.062 573.131 649.114 573.391 649.112C573.91 649.112 574.407 648.906 574.774 648.539C575.142 648.172 575.348 647.674 575.348 647.155C575.348 646.636 575.142 646.138 574.774 645.771C574.407 645.404 573.91 645.198 573.391 645.198C573.131 645.199 572.874 645.252 572.635 645.356L545.017 597.521L573.529 548.135L630.559 548.135L658.197 595.991C657.954 596.166 657.756 596.395 657.618 596.661C657.48 596.927 657.406 597.221 657.403 597.521C657.405 597.824 657.477 598.123 657.614 598.394C657.75 598.665 657.948 598.901 658.19 599.084L631.459 645.382C631.22 645.281 630.963 645.229 630.703 645.231C630.446 645.23 630.191 645.28 629.954 645.378C629.716 645.476 629.5 645.619 629.318 645.801C629.136 645.983 628.991 646.198 628.893 646.436C628.794 646.673 628.743 646.928 628.743 647.185C628.743 647.442 628.794 647.696 628.893 647.934C628.991 648.171 629.136 648.387 629.318 648.569C629.5 648.75 629.716 648.894 629.954 648.992C630.191 649.09 630.446 649.14 630.703 649.139C630.962 649.137 631.219 649.086 631.459 648.988L659.143 696.934L659.215 697.052L716.81 697.052L744.567 648.988C744.809 649.086 745.067 649.137 745.329 649.139C745.8 649.133 746.254 648.956 746.604 648.641C746.955 648.325 747.178 647.893 747.233 647.424L802.49 647.424L830.122 695.279C829.88 695.454 829.683 695.684 829.547 695.95C829.411 696.216 829.34 696.511 829.34 696.809C829.34 697.108 829.411 697.403 829.547 697.669C829.683 697.935 829.88 698.165 830.122 698.34L802.425 746.326L802.352 746.451L831.074 796.2L831.147 796.325L886.693 796.325C886.747 796.793 886.971 797.225 887.322 797.539C887.673 797.854 888.126 798.029 888.597 798.033C888.854 798.033 889.109 797.983 889.346 797.885C889.584 797.787 889.799 797.643 889.981 797.462C890.163 797.28 890.307 797.065 890.406 796.827C890.504 796.59 890.554 796.336 890.554 796.079C890.552 795.78 890.48 795.486 890.343 795.221C890.206 794.955 890.008 794.726 889.766 794.551L917.477 746.569L917.542 746.451L888.886 696.809L916.498 648.981C916.741 649.084 917.003 649.138 917.267 649.139C917.738 649.133 918.192 648.956 918.542 648.641C918.893 648.325 919.116 647.893 919.171 647.425L974.711 647.425L1003.43 597.672L1003.5 597.547L975.735 549.449C975.981 549.276 976.181 549.046 976.319 548.779C976.458 548.512 976.53 548.216 976.53 547.915C976.53 547.615 976.458 547.319 976.319 547.052C976.181 546.785 975.981 546.555 975.735 546.382L1003.37 498.528L1058.63 498.528C1058.66 498.825 1058.77 499.11 1058.93 499.361C1059.09 499.612 1059.31 499.821 1059.57 499.972C1059.83 500.123 1060.12 500.212 1060.42 500.231C1060.72 500.251 1061.01 500.2 1061.29 500.084L1088.91 547.919L1061.29 595.741C1061.05 595.643 1060.79 595.592 1060.53 595.59C1060.28 595.589 1060.02 595.639 1059.78 595.737C1059.55 595.835 1059.33 595.979 1059.15 596.161C1058.96 596.343 1058.82 596.559 1058.72 596.797C1058.62 597.034 1058.57 597.289 1058.57 597.547C1058.57 597.804 1058.62 598.059 1058.72 598.297C1058.82 598.535 1058.96 598.751 1059.15 598.933C1059.33 599.115 1059.55 599.259 1059.78 599.357C1060.02 599.455 1060.28 599.505 1060.53 599.504C1060.79 599.505 1061.05 599.454 1061.29 599.353L1088.98 647.3L1089.05 647.418L1144.59 647.418C1144.64 647.912 1144.89 648.365 1145.27 648.685C1145.65 649.004 1146.14 649.165 1146.63 649.135C1147.13 649.105 1147.59 648.885 1147.93 648.522C1148.27 648.158 1148.46 647.678 1148.45 647.181C1148.45 646.882 1148.38 646.588 1148.24 646.322C1148.11 646.057 1147.91 645.827 1147.67 645.651L1175.37 597.672L1175.44 597.547L1146.78 547.919L1174.4 500.084C1174.67 500.2 1174.97 500.251 1175.27 500.231C1175.57 500.212 1175.86 500.123 1176.12 499.972C1176.38 499.821 1176.6 499.612 1176.76 499.361C1176.93 499.111 1177.03 498.825 1177.06 498.528L1232.6 498.528L1260.36 450.456C1260.6 450.556 1260.86 450.608 1261.12 450.607C1261.59 450.603 1262.05 450.427 1262.4 450.111C1262.75 449.796 1262.98 449.362 1263.03 448.893L1318.3 448.893L1345.93 496.754C1345.69 496.929 1345.49 497.158 1345.35 497.424C1345.21 497.69 1345.14 497.985 1345.13 498.284C1345.13 498.541 1345.18 498.795 1345.28 499.032C1345.38 499.269 1345.53 499.485 1345.71 499.666C1345.89 499.847 1346.11 499.991 1346.34 500.088C1346.58 500.186 1346.83 500.236 1347.09 500.235C1347.56 500.232 1348.02 500.057 1348.37 499.742C1348.72 499.428 1348.94 498.996 1349 498.528L1404.55 498.528L1432.3 450.456C1432.54 450.557 1432.8 450.608 1433.06 450.607C1433.58 450.607 1434.08 450.401 1434.44 450.035C1434.81 449.668 1435.01 449.171 1435.01 448.653C1435.01 448.135 1434.81 447.638 1434.44 447.271C1434.08 446.905 1433.58 446.699 1433.06 446.699C1432.8 446.698 1432.54 446.749 1432.3 446.85L1404.61 398.897L1404.55 398.779L1347.24 398.779L1319.6 350.918C1319.84 350.742 1320.04 350.512 1320.18 350.244C1320.32 349.977 1320.39 349.681 1320.39 349.381C1320.4 348.885 1320.21 348.407 1319.87 348.045C1319.53 347.682 1319.07 347.464 1318.57 347.433C1318.08 347.403 1317.59 347.563 1317.21 347.882C1316.83 348.2 1316.59 348.652 1316.53 349.144L1260.98 349.144L1232.33 398.779L1177.06 398.779C1177.01 398.286 1176.76 397.834 1176.38 397.516C1176 397.198 1175.51 397.038 1175.02 397.068C1174.52 397.098 1174.06 397.317 1173.72 397.679C1173.38 398.041 1173.19 398.52 1173.2 399.016C1173.2 399.315 1173.27 399.61 1173.41 399.876C1173.55 400.142 1173.75 400.372 1173.99 400.546L1146.36 448.413L1089.34 448.413L1060.82 399.015L1088.43 351.193C1088.67 351.291 1088.93 351.343 1089.19 351.345C1089.66 351.34 1090.12 351.164 1090.47 350.85C1090.82 350.536 1091.04 350.105 1091.1 349.637L1146.64 349.637L1174.4 301.559C1174.63 301.656 1174.89 301.708 1175.14 301.71C1175.43 301.714 1175.72 301.653 1175.99 301.531C1176.25 301.409 1176.48 301.23 1176.67 301.006C1176.86 300.782 1176.99 300.519 1177.06 300.237C1177.14 299.954 1177.14 299.659 1177.09 299.373C1177.03 299.088 1176.91 298.818 1176.74 298.584C1176.56 298.35 1176.34 298.158 1176.08 298.022C1175.82 297.886 1175.54 297.809 1175.25 297.797C1174.96 297.785 1174.67 297.839 1174.4 297.953L1146.78 250.125L1174.4 202.29C1174.64 202.393 1174.89 202.446 1175.15 202.447C1175.63 202.442 1176.08 202.265 1176.43 201.95C1176.78 201.635 1177.01 201.202 1177.06 200.733L1232.33 200.733L1260.91 250.249L1260.98 250.368L1318.57 250.368L1346.33 202.29C1346.57 202.387 1346.82 202.44 1347.08 202.447C1347.55 202.446 1348.01 202.27 1348.36 201.954C1348.72 201.639 1348.94 201.204 1349 200.733L1404.54 200.733L1433.27 150.98L1433.34 150.856L1405.57 102.752C1405.81 102.578 1406 102.35 1406.14 102.086C1406.28 101.823 1406.35 101.531 1406.35 101.234C1406.36 100.978 1406.31 100.723 1406.21 100.485C1406.11 100.248 1405.97 100.031 1405.79 99.8489C1405.61 99.6665 1405.39 99.5215 1405.16 99.4222C1404.92 99.323 1404.67 99.2714 1404.41 99.2704C1403.94 99.2695 1403.48 99.4431 1403.13 99.7581C1402.77 100.073 1402.55 100.507 1402.49 100.978L1346.95 100.978L1318.29 150.613L1263.03 150.613C1262.98 150.146 1262.75 149.716 1262.4 149.401C1262.06 149.086 1261.61 148.908 1261.14 148.898C1260.87 148.9 1260.61 148.953 1260.36 149.056L1232.75 101.228L1261.34 51.718L1261.4 51.5929L1233.63 3.49496C1233.87 3.31973 1234.07 3.09097 1234.2 2.82666C1234.34 2.56234 1234.42 2.26968 1234.42 1.9716C1234.43 1.47395 1234.25 0.992367 1233.91 0.626402C1233.57 0.260436 1233.11 0.0380469 1232.61 0.00515289C1232.11 -0.0277412 1231.62 0.131398 1231.24 0.449677C1230.86 0.767955 1230.61 1.22106 1230.55 1.71537L1175.01 1.71536L1146.29 51.4684L1146.21 51.5929L1173.99 99.6968C1173.75 99.8705 1173.55 100.097 1173.42 100.359C1173.28 100.622 1173.2 100.912 1173.2 101.208C1173.2 101.51 1173.27 101.807 1173.41 102.076C1173.55 102.344 1173.75 102.576 1173.99 102.752L1146.36 150.613L1091.1 150.613C1091.04 150.119 1090.8 149.667 1090.42 149.349C1090.04 149.031 1089.55 148.871 1089.05 148.902C1088.56 148.933 1088.09 149.153 1087.75 149.516C1087.42 149.88 1087.23 150.359 1087.23 150.855C1087.24 151.155 1087.31 151.45 1087.45 151.716C1087.59 151.981 1087.79 152.211 1088.03 152.386L1060.32 200.365L1060.25 200.49L1088.03 248.587C1087.79 248.764 1087.59 248.995 1087.45 249.262C1087.31 249.529 1087.24 249.824 1087.23 250.125C1087.24 250.423 1087.31 250.717 1087.45 250.981C1087.59 251.246 1087.79 251.474 1088.03 251.648L1060.39 299.509L1003.37 299.509L975.735 251.648C975.977 251.474 976.174 251.245 976.311 250.981C976.448 250.716 976.521 250.423 976.523 250.125C976.521 249.825 976.448 249.53 976.311 249.263C976.175 248.996 975.977 248.764 975.735 248.587L1003.43 200.609L1003.5 200.483L975.735 152.385C975.978 152.211 976.175 151.981 976.312 151.715C976.449 151.449 976.522 151.155 976.523 150.855C976.523 150.336 976.317 149.839 975.95 149.472C975.583 149.105 975.085 148.898 974.566 148.898C974.094 148.903 973.64 149.079 973.289 149.395C972.938 149.711 972.715 150.144 972.661 150.613L917.116 150.613L889.359 198.684C889.12 198.581 888.863 198.527 888.603 198.526C888.346 198.525 888.091 198.576 887.853 198.674C887.615 198.772 887.398 198.916 887.216 199.097C887.033 199.279 886.889 199.495 886.79 199.733C886.691 199.971 886.64 200.226 886.64 200.483C886.64 200.741 886.691 200.996 886.79 201.234C886.889 201.472 887.033 201.688 887.216 201.869C887.398 202.051 887.615 202.195 887.853 202.293C888.091 202.391 888.346 202.441 888.603 202.441C888.863 202.442 889.12 202.391 889.359 202.29L916.978 250.125L888.466 299.509L831.435 299.509L803.798 251.648C804.04 251.474 804.239 251.246 804.377 250.981C804.515 250.717 804.588 250.423 804.592 250.125C804.59 249.821 804.518 249.522 804.381 249.251C804.244 248.979 804.047 248.743 803.804 248.561L830.535 202.263C830.775 202.364 831.032 202.416 831.291 202.414C831.549 202.417 831.805 202.368 832.045 202.271C832.284 202.174 832.501 202.03 832.685 201.848C832.868 201.667 833.013 201.451 833.113 201.212C833.212 200.974 833.263 200.719 833.263 200.461C833.263 200.202 833.212 199.947 833.113 199.709C833.013 199.47 832.868 199.254 832.685 199.073C832.501 198.891 832.284 198.747 832.045 198.65C831.805 198.553 831.549 198.504 831.291 198.507C831.032 198.508 830.776 198.559 830.535 198.657L802.851 150.704L802.773 150.586L745.177 150.586L717.428 198.657C717.186 198.559 716.927 198.508 716.666 198.507C716.194 198.51 715.739 198.686 715.388 199.002C715.037 199.318 714.814 199.751 714.761 200.22L659.505 200.22L631.866 152.359C632.11 152.186 632.309 151.957 632.446 151.692C632.583 151.426 632.654 151.131 632.654 150.832C632.654 150.533 632.583 150.239 632.446 149.973C632.309 149.707 632.11 149.478 631.866 149.305L659.577 101.313L659.642 101.195L630.914 51.4415L630.848 51.3238L575.302 51.3238C575.245 50.8309 575.001 50.3787 574.62 50.0604C574.24 49.7421 573.751 49.5821 573.256 49.6132C572.761 49.6443 572.296 49.8643 571.959 50.2278C571.621 50.5912 571.435 51.0705 571.44 51.5666C571.442 51.8641 571.514 52.157 571.65 52.4216C571.785 52.6863 571.981 52.9155 572.222 53.0907L544.525 101.07L544.452 101.195L573.109 150.829L545.497 198.664C545.253 198.561 544.992 198.507 544.728 198.507C544.256 198.51 543.801 198.686 543.45 199.002C543.099 199.318 542.876 199.751 542.823 200.22L487.284 200.22L458.562 249.973L458.483 250.092L486.26 298.196C486.014 298.368 485.814 298.598 485.675 298.864C485.537 299.13 485.465 299.426 485.465 299.726C485.465 300.026 485.537 300.322 485.675 300.588C485.814 300.855 486.014 301.084 486.26 301.257L458.628 349.118L403.371 349.118C403.316 348.648 403.091 348.215 402.739 347.9C402.387 347.584 401.932 347.408 401.46 347.403C401.2 347.402 400.943 347.453 400.705 347.555L373.086 299.726L400.705 251.898C400.943 251.999 401.2 252.051 401.46 252.049C401.717 252.05 401.972 252 402.21 251.902C402.447 251.804 402.663 251.66 402.846 251.479C403.028 251.297 403.172 251.082 403.271 250.844C403.369 250.607 403.42 250.352 403.42 250.095C403.42 249.838 403.369 249.583 403.271 249.346C403.172 249.108 403.028 248.893 402.846 248.711C402.663 248.529 402.447 248.386 402.21 248.288C401.972 248.19 401.717 248.14 401.46 248.141C401.2 248.136 400.943 248.188 400.705 248.292L373.014 200.339L372.941 200.22L317.402 200.22C317.349 199.751 317.126 199.318 316.775 199.002C316.424 198.686 315.97 198.51 315.497 198.507C314.978 198.507 314.481 198.713 314.114 199.08C313.747 199.447 313.54 199.945 313.54 200.464C313.542 200.763 313.614 201.057 313.751 201.323C313.888 201.589 314.086 201.819 314.328 201.994L286.625 249.973L286.552 250.092L315.209 299.727L287.597 347.561C287.359 347.457 287.101 347.405 286.841 347.41C286.369 347.411 285.913 347.585 285.56 347.9C285.208 348.215 284.983 348.648 284.93 349.118L229.384 349.118L201.634 397.189C201.391 397.088 201.129 397.037 200.866 397.038C200.395 397.043 199.942 397.219 199.592 397.533C199.241 397.847 199.017 398.278 198.961 398.746L143.698 398.746L116.066 350.891C116.309 350.717 116.508 350.487 116.646 350.221C116.784 349.955 116.858 349.66 116.86 349.36C116.86 349.104 116.809 348.85 116.711 348.613C116.612 348.376 116.468 348.161 116.286 347.979C116.104 347.798 115.889 347.655 115.651 347.557C115.414 347.459 115.16 347.409 114.903 347.41C114.432 347.412 113.977 347.587 113.626 347.902C113.275 348.217 113.052 348.649 112.998 349.118L57.4465 349.118L29.6965 397.189C29.4298 397.077 29.1415 397.026 28.8525 397.038C28.5635 397.051 28.2809 397.128 28.0251 397.263C27.7694 397.398 27.5469 397.589 27.3736 397.82C27.2003 398.052 27.0805 398.319 27.023 398.603C26.9655 398.886 26.9716 399.179 27.041 399.46C27.1103 399.741 27.2412 400.003 27.4241 400.227C27.6069 400.451 27.8372 400.632 28.0984 400.756C28.3596 400.881 28.6452 400.946 28.9345 400.946V400.946ZM114.765 746.175L59.5019 746.175C59.4711 745.876 59.3703 745.589 59.2078 745.336C59.0452 745.084 58.8256 744.874 58.5665 744.722C58.3074 744.57 58.0162 744.482 57.7166 744.464C57.4169 744.446 57.1173 744.499 56.8419 744.618L29.2169 696.79L57.7351 647.398L112.998 647.398C113.054 647.865 113.277 648.296 113.626 648.611C113.975 648.926 114.426 649.104 114.896 649.112C115.161 649.114 115.423 649.06 115.665 648.955L133.773 680.324L143.277 696.79L114.765 746.175ZM201.628 694.984C201.392 694.886 201.14 694.835 200.885 694.832C200.411 694.832 199.954 695.006 199.599 695.321C199.244 695.636 199.017 696.069 198.961 696.54L143.704 696.54L124.696 663.621L116.073 648.692C116.314 648.515 116.51 648.285 116.647 648.02C116.783 647.754 116.857 647.46 116.86 647.162C116.859 646.862 116.788 646.568 116.651 646.302C116.514 646.036 116.316 645.806 116.073 645.631L143.704 597.763L200.728 597.763L229.246 647.155L210.238 680.081L201.628 694.984ZM315.209 796.055L286.697 845.44L231.433 845.44C231.379 844.973 231.157 844.541 230.808 844.226C230.458 843.911 230.006 843.735 229.535 843.729C229.274 843.726 229.014 843.778 228.773 843.881L201.154 796.055L229.666 746.661L284.93 746.661C284.983 747.128 285.206 747.561 285.555 747.876C285.905 748.192 286.357 748.369 286.828 748.375C287.092 748.377 287.354 748.324 287.597 748.217L315.209 796.055ZM287.597 744.618C287.36 744.522 287.109 744.468 286.854 744.46C286.38 744.463 285.922 744.639 285.568 744.954C285.214 745.27 284.987 745.704 284.93 746.175L229.666 746.175L202.035 698.32C202.275 698.144 202.471 697.915 202.609 697.65C202.747 697.386 202.822 697.094 202.83 696.796C202.827 696.496 202.753 696.2 202.615 695.933C202.477 695.666 202.278 695.435 202.035 695.259L220.162 663.864L229.666 647.398L284.93 647.398C284.985 647.868 285.21 648.301 285.562 648.616C285.914 648.932 286.369 649.108 286.841 649.112C287.101 649.115 287.359 649.061 287.597 648.955L305.705 680.324L315.209 696.79L287.597 744.618ZM401.177 647.155L373.565 694.984C373.324 694.883 373.065 694.832 372.803 694.832C372.332 694.838 371.878 695.013 371.527 695.327C371.175 695.642 370.95 696.072 370.892 696.54L315.635 696.54L296.628 663.621L288.003 648.692C288.246 648.515 288.444 648.284 288.582 648.017C288.72 647.751 288.794 647.455 288.798 647.155C288.796 646.856 288.723 646.562 288.585 646.297C288.447 646.032 288.247 645.804 288.003 645.631L315.635 597.763L370.892 597.763C370.949 598.232 371.173 598.665 371.525 598.98C371.877 599.295 372.331 599.472 372.803 599.478C373.065 599.478 373.324 599.427 373.565 599.327L401.177 647.155ZM373.565 595.721C373.324 595.618 373.065 595.565 372.803 595.563C372.331 595.569 371.877 595.746 371.525 596.061C371.173 596.376 370.948 596.809 370.892 597.278L315.635 597.278L288.003 549.423C288.249 549.25 288.449 549.021 288.588 548.755C288.726 548.488 288.798 548.193 288.798 547.893C288.798 547.592 288.726 547.297 288.588 547.03C288.449 546.764 288.249 546.535 288.003 546.363L315.635 498.501L370.892 498.501C370.948 498.969 371.172 499.402 371.524 499.716C371.876 500.031 372.331 500.206 372.803 500.209C373.065 500.213 373.325 500.161 373.565 500.058L391.673 531.433L401.177 547.893L373.565 595.721ZM401.604 547.643L382.59 514.718L373.966 499.789C374.211 499.616 374.412 499.387 374.55 499.12C374.688 498.854 374.76 498.558 374.76 498.258C374.76 497.958 374.688 497.662 374.55 497.396C374.412 497.13 374.211 496.9 373.966 496.728L401.605 448.873L456.861 448.873C456.896 449.17 456.999 449.455 457.163 449.706C457.327 449.957 457.547 450.166 457.806 450.317C458.065 450.468 458.355 450.557 458.654 450.576C458.952 450.596 459.252 450.546 459.528 450.43L487.146 498.258L468.132 531.183L458.628 547.643L401.604 547.643ZM459.935 447.093L486.667 400.795C486.943 400.912 487.243 400.962 487.542 400.942C487.842 400.923 488.133 400.833 488.392 400.681C488.65 400.53 488.87 400.32 489.034 400.068C489.197 399.817 489.3 399.53 489.333 399.232L544.872 399.232L572.629 351.167C572.871 351.265 573.13 351.316 573.391 351.318C573.91 351.318 574.408 351.112 574.775 350.745C575.142 350.378 575.348 349.88 575.348 349.361C575.348 348.842 575.142 348.344 574.775 347.977C574.408 347.61 573.91 347.403 573.391 347.403C573.132 347.405 572.875 347.457 572.635 347.555L545.017 299.727L573.529 250.341L630.559 250.341L658.197 298.196C657.953 298.37 657.753 298.6 657.614 298.866C657.475 299.132 657.4 299.426 657.396 299.727C657.396 300.246 657.603 300.743 657.97 301.11C658.337 301.477 658.834 301.684 659.353 301.684C659.825 301.681 660.28 301.506 660.632 301.191C660.984 300.877 661.209 300.445 661.265 299.976L716.515 299.976L744.153 347.857C743.913 348.032 743.717 348.262 743.58 348.526C743.443 348.791 743.369 349.083 743.365 349.381C743.364 349.638 743.414 349.893 743.512 350.131C743.611 350.37 743.755 350.586 743.936 350.768C744.118 350.951 744.334 351.095 744.572 351.194C744.81 351.293 745.064 351.344 745.322 351.345C745.793 351.341 746.246 351.165 746.597 350.851C746.947 350.536 747.171 350.105 747.227 349.637L802.49 349.637L830.122 397.485C829.864 397.676 829.658 397.928 829.523 398.218C829.387 398.508 829.325 398.828 829.343 399.148C829.362 399.468 829.459 399.779 829.627 400.052C829.795 400.325 830.028 400.552 830.305 400.712C830.583 400.873 830.896 400.962 831.216 400.972C831.536 400.982 831.854 400.912 832.141 400.768C832.427 400.624 832.674 400.412 832.858 400.15C833.042 399.887 833.158 399.583 833.196 399.265L888.741 399.265L916.498 351.193C916.74 351.292 916.999 351.343 917.26 351.345C917.731 351.34 918.184 351.165 918.535 350.85C918.885 350.536 919.109 350.105 919.165 349.637L974.421 349.637L1002.06 397.485C1001.82 397.661 1001.62 397.892 1001.49 398.157C1001.35 398.423 1001.28 398.717 1001.27 399.016C1001.27 399.315 1001.34 399.609 1001.48 399.875C1001.62 400.141 1001.82 400.371 1002.06 400.546L975.328 446.85C975.051 446.734 974.752 446.684 974.452 446.703C974.153 446.723 973.862 446.812 973.603 446.964C973.344 447.116 973.124 447.326 972.961 447.577C972.797 447.829 972.695 448.115 972.661 448.413L917.115 448.413L889.365 496.472C889.125 496.377 888.869 496.328 888.61 496.327C888.092 496.327 887.595 496.533 887.228 496.899C886.862 497.266 886.656 497.763 886.656 498.281C886.656 498.799 886.862 499.296 887.228 499.663C887.595 500.029 888.092 500.235 888.61 500.235C888.867 500.236 889.122 500.184 889.359 500.084L916.977 547.919L888.465 597.304L831.435 597.304L803.797 549.449C804.041 549.274 804.241 549.045 804.38 548.779C804.519 548.513 804.594 548.219 804.598 547.919C804.599 547.662 804.549 547.407 804.45 547.169C804.352 546.932 804.208 546.716 804.026 546.534C803.844 546.352 803.628 546.208 803.391 546.11C803.153 546.012 802.898 545.961 802.641 545.962C802.169 545.963 801.714 546.138 801.361 546.453C801.009 546.767 800.785 547.2 800.73 547.669L745.486 547.669L717.835 499.789C718.078 499.613 718.276 499.384 718.414 499.118C718.552 498.852 718.626 498.557 718.63 498.258C718.634 497.762 718.448 497.283 718.11 496.92C717.772 496.557 717.308 496.337 716.813 496.305C716.318 496.273 715.83 496.432 715.448 496.748C715.067 497.065 714.821 497.516 714.761 498.008L659.504 498.008L631.866 450.154C632.109 449.979 632.307 449.749 632.445 449.483C632.583 449.217 632.657 448.923 632.66 448.623C632.663 448.128 632.476 447.65 632.137 447.288C631.799 446.927 631.335 446.708 630.841 446.677C630.347 446.646 629.859 446.805 629.478 447.122C629.097 447.438 628.852 447.889 628.792 448.38L573.253 448.38L545.497 496.452C545.22 496.336 544.921 496.285 544.622 496.305C544.323 496.324 544.033 496.413 543.774 496.564C543.516 496.715 543.296 496.924 543.132 497.175C542.968 497.425 542.864 497.711 542.83 498.008L487.566 498.008L459.935 450.154C460.179 449.98 460.377 449.751 460.514 449.484C460.651 449.218 460.723 448.923 460.723 448.624C460.723 448.324 460.651 448.029 460.514 447.763C460.377 447.497 460.179 447.267 459.935 447.093V447.093ZM572.222 645.631C571.978 645.805 571.779 646.034 571.642 646.299C571.505 646.565 571.433 646.859 571.433 647.158C571.433 647.457 571.505 647.752 571.642 648.018C571.779 648.283 571.978 648.512 572.222 648.686L544.59 696.54L489.333 696.54C489.279 696.071 489.056 695.638 488.705 695.323C488.354 695.007 487.9 694.83 487.428 694.826C487.167 694.827 486.907 694.881 486.666 694.984L459.054 647.162L486.667 599.327C486.908 599.427 487.167 599.478 487.429 599.478C487.9 599.473 488.355 599.296 488.705 598.981C489.056 598.665 489.279 598.232 489.333 597.763L544.59 597.763L572.222 645.631ZM544.59 597.278L489.333 597.278C489.279 596.809 489.056 596.376 488.705 596.06C488.354 595.744 487.9 595.568 487.428 595.563C487.167 595.565 486.908 595.618 486.666 595.721L459.054 547.893L478.062 514.967L487.566 498.501L542.83 498.501C542.883 498.969 543.106 499.402 543.457 499.717C543.808 500.032 544.263 500.207 544.735 500.209C544.996 500.214 545.256 500.162 545.496 500.058L563.605 531.433L573.109 547.893L544.59 597.278ZM573.529 547.643L554.521 514.718L545.897 499.789C546.143 499.616 546.343 499.387 546.481 499.12C546.619 498.854 546.692 498.558 546.692 498.258C546.692 497.958 546.619 497.662 546.481 497.396C546.343 497.13 546.143 496.9 545.897 496.728L573.529 448.873L628.792 448.873C628.85 449.34 629.076 449.771 629.427 450.085C629.779 450.399 630.232 450.575 630.703 450.58C630.965 450.581 631.224 450.53 631.465 450.43L659.077 498.258L640.069 531.183L630.559 547.643L573.529 547.643ZM630.986 547.893L649.994 514.967L659.504 498.501L714.761 498.501C714.817 498.97 715.042 499.402 715.394 499.717C715.746 500.031 716.2 500.206 716.673 500.209C716.932 500.213 717.19 500.162 717.428 500.058L745.046 547.893L716.528 597.278L661.265 597.278C661.234 596.979 661.133 596.692 660.971 596.44C660.808 596.187 660.588 595.977 660.329 595.825C660.07 595.673 659.779 595.585 659.479 595.567C659.18 595.549 658.88 595.601 658.605 595.721L630.986 547.893ZM744.166 648.712L716.528 696.566L659.505 696.566L631.866 648.712C632.111 648.539 632.312 648.31 632.45 648.044C632.588 647.777 632.66 647.481 632.66 647.181C632.66 646.881 632.588 646.586 632.45 646.319C632.312 646.053 632.111 645.824 631.866 645.651L658.611 599.327C658.884 599.442 659.181 599.493 659.477 599.474C659.773 599.455 660.061 599.368 660.318 599.219C660.574 599.069 660.793 598.863 660.956 598.615C661.119 598.367 661.223 598.084 661.258 597.79L716.528 597.79L735.535 630.722L744.166 645.651C743.92 645.824 743.72 646.053 743.582 646.319C743.444 646.586 743.371 646.881 743.371 647.181C743.371 647.482 743.444 647.777 743.582 648.044C743.72 648.31 743.92 648.539 744.166 648.712L744.166 648.712ZM747.233 646.938C747.199 646.641 747.095 646.355 746.931 646.105C746.768 645.854 746.548 645.645 746.289 645.494C746.03 645.343 745.74 645.254 745.441 645.235C745.142 645.215 744.843 645.266 744.567 645.382L726.458 614.013L716.955 597.547L745.467 548.162L800.73 548.162C800.786 548.63 801.011 549.063 801.363 549.377C801.715 549.692 802.169 549.867 802.641 549.869C802.899 549.873 803.154 549.822 803.39 549.719L831.009 597.547L812.001 630.472L802.49 646.938L747.233 646.938ZM916.977 746.451L889.359 794.276C889.118 794.172 888.859 794.119 888.597 794.122C888.125 794.125 887.67 794.301 887.319 794.617C886.968 794.933 886.745 795.366 886.693 795.835L831.435 795.835L802.917 746.451L830.535 698.616C830.812 698.732 831.112 698.782 831.411 698.763C831.711 698.743 832.001 698.654 832.26 698.502C832.519 698.35 832.739 698.14 832.902 697.889C833.066 697.637 833.169 697.351 833.202 697.052L888.465 697.052L916.977 746.451ZM916.097 648.712L888.465 696.567L833.202 696.566C833.17 696.268 833.069 695.98 832.906 695.728C832.742 695.476 832.522 695.265 832.262 695.114C832.003 694.962 831.711 694.874 831.411 694.856C831.111 694.838 830.811 694.891 830.535 695.01L802.917 647.188L821.931 614.256L831.435 597.79L888.465 597.79L907.467 630.722L916.097 645.651C915.853 645.825 915.655 646.055 915.518 646.321C915.38 646.587 915.309 646.882 915.309 647.182C915.309 647.481 915.38 647.776 915.518 648.042C915.655 648.308 915.853 648.538 916.097 648.712L916.097 648.712ZM1002.94 597.547L974.421 646.938L919.171 646.938C919.116 646.471 918.892 646.039 918.541 645.725C918.191 645.411 917.738 645.235 917.267 645.231C917.003 645.229 916.742 645.281 916.498 645.382L898.39 614.013L888.886 597.547L917.405 548.162L972.661 548.162C972.717 548.63 972.942 549.063 973.294 549.377C973.646 549.692 974.101 549.867 974.573 549.869C974.832 549.873 975.09 549.822 975.328 549.719L1002.94 597.547ZM975.328 546.112C975.052 545.996 974.753 545.946 974.454 545.966C974.155 545.985 973.865 546.074 973.606 546.225C973.347 546.376 973.127 546.585 972.963 546.836C972.799 547.087 972.696 547.372 972.661 547.669L917.405 547.669L889.766 499.815C890.009 499.639 890.208 499.41 890.347 499.144C890.486 498.878 890.562 498.584 890.567 498.284C890.563 497.984 890.489 497.689 890.349 497.423C890.21 497.158 890.01 496.928 889.766 496.754L917.405 448.893L972.661 448.893C972.695 449.191 972.797 449.477 972.961 449.729C973.124 449.981 973.344 450.191 973.603 450.342C973.862 450.494 974.153 450.583 974.452 450.603C974.752 450.623 975.051 450.573 975.328 450.456L993.435 481.825L1002.94 498.284L975.328 546.112ZM1174.87 597.547L1147.26 645.375C1147.02 645.275 1146.76 645.221 1146.5 645.218C1146.03 645.225 1145.57 645.403 1145.22 645.718C1144.87 646.033 1144.64 646.464 1144.59 646.932L1089.34 646.932L1061.7 599.084C1061.95 598.91 1062.15 598.68 1062.28 598.414C1062.42 598.148 1062.49 597.853 1062.49 597.553C1062.49 597.254 1062.42 596.959 1062.28 596.693C1062.15 596.426 1061.95 596.197 1061.7 596.023L1089.34 548.162L1146.36 548.162L1174.87 597.547ZM1404.26 399.265L1431.89 447.119C1431.65 447.293 1431.45 447.523 1431.31 447.789C1431.17 448.055 1431.1 448.35 1431.1 448.65C1431.1 448.949 1431.17 449.244 1431.31 449.511C1431.45 449.777 1431.65 450.006 1431.89 450.18L1404.26 498.041L1349 498.041C1348.94 497.572 1348.72 497.139 1348.37 496.823C1348.02 496.507 1347.56 496.33 1347.09 496.327C1346.83 496.327 1346.58 496.376 1346.34 496.472L1318.72 448.649L1337.73 415.724L1347.24 399.265L1404.26 399.265ZM1261.27 349.637L1316.53 349.637C1316.59 350.104 1316.81 350.535 1317.16 350.849C1317.51 351.163 1317.96 351.339 1318.43 351.345C1318.69 351.343 1318.95 351.292 1319.19 351.193L1346.81 399.016L1327.8 431.941L1318.3 448.413L1263.03 448.413C1262.98 447.944 1262.75 447.51 1262.4 447.194C1262.05 446.878 1261.6 446.702 1261.12 446.699C1260.86 446.698 1260.6 446.75 1260.36 446.85L1242.25 415.481L1232.75 399.015L1261.27 349.637ZM1174.4 400.828C1174.64 400.924 1174.89 400.973 1175.15 400.973C1175.62 400.969 1176.08 400.793 1176.43 400.479C1176.78 400.165 1177.01 399.733 1177.06 399.265L1232.33 399.265L1251.33 432.191L1259.96 447.12C1259.71 447.292 1259.51 447.521 1259.38 447.788C1259.24 448.054 1259.16 448.35 1259.16 448.65C1259.16 448.95 1259.24 449.246 1259.38 449.512C1259.51 449.779 1259.71 450.008 1259.96 450.18L1232.33 498.042L1177.06 498.041C1177.01 497.572 1176.78 497.139 1176.43 496.823C1176.08 496.507 1175.63 496.331 1175.15 496.327C1174.89 496.327 1174.64 496.376 1174.4 496.472L1156.29 465.109L1146.78 448.65L1174.4 400.828ZM1146.36 448.893L1165.37 481.825L1173.99 496.754C1173.75 496.927 1173.55 497.156 1173.41 497.422C1173.27 497.689 1173.2 497.984 1173.2 498.285C1173.2 498.585 1173.27 498.881 1173.41 499.147C1173.55 499.413 1173.75 499.642 1173.99 499.815L1146.36 547.669L1089.34 547.669L1061.7 499.815C1061.95 499.641 1062.15 499.412 1062.28 499.145C1062.42 498.879 1062.49 498.584 1062.49 498.285C1062.49 497.985 1062.42 497.69 1062.28 497.424C1062.15 497.158 1061.95 496.928 1061.7 496.754L1079.83 465.359L1089.34 448.893L1146.36 448.893ZM1088.91 448.65L1069.89 481.575L1061.29 496.472C1061.05 496.376 1060.79 496.327 1060.53 496.327C1060.06 496.33 1059.61 496.507 1059.26 496.823C1058.91 497.139 1058.68 497.572 1058.63 498.041L1003.37 498.041L984.359 465.109L975.735 450.18C975.98 450.008 976.181 449.778 976.319 449.512C976.458 449.246 976.53 448.95 976.53 448.65C976.53 448.35 976.458 448.054 976.319 447.787C976.181 447.521 975.98 447.292 975.735 447.119L1002.47 400.828C1002.71 400.924 1002.97 400.973 1003.23 400.973C1003.7 400.968 1004.15 400.793 1004.5 400.478C1004.85 400.164 1005.08 399.733 1005.13 399.265L1060.39 399.265L1088.91 448.65ZM1347.23 101.47L1402.49 101.47C1402.55 101.938 1402.77 102.369 1403.12 102.685C1403.47 103 1403.92 103.178 1404.39 103.185C1404.66 103.184 1404.92 103.128 1405.16 103.021L1432.77 150.856L1404.26 200.247L1349 200.247C1348.94 199.779 1348.72 199.348 1348.37 199.033C1348.02 198.717 1347.57 198.54 1347.1 198.533C1346.83 198.528 1346.57 198.582 1346.33 198.69L1328.22 167.321L1318.72 150.856L1347.23 101.47ZM1260.36 152.655C1260.64 152.775 1260.94 152.827 1261.24 152.809C1261.54 152.791 1261.83 152.703 1262.09 152.552C1262.35 152.4 1262.57 152.19 1262.73 151.937C1262.9 151.685 1263 151.398 1263.03 151.098L1318.29 151.098L1337.3 184.024L1345.92 198.959C1345.68 199.133 1345.48 199.362 1345.34 199.627C1345.21 199.893 1345.13 200.188 1345.13 200.487C1345.13 200.786 1345.21 201.08 1345.34 201.346C1345.48 201.611 1345.68 201.84 1345.92 202.014L1318.29 249.881L1261.27 249.881L1232.75 200.49L1251.76 167.565L1260.36 152.655ZM1146.78 51.5929L1175.3 2.20163L1230.55 2.20164C1230.61 2.66993 1230.83 3.10213 1231.18 3.41751C1231.53 3.73288 1231.99 3.90985 1232.46 3.91535C1232.72 3.91603 1232.98 3.86491 1233.23 3.76481L1260.84 51.593L1232.33 100.978L1177.06 100.978C1177.01 100.512 1176.79 100.082 1176.44 99.7678C1176.09 99.4537 1175.64 99.277 1175.17 99.2704C1174.9 99.2651 1174.64 99.3165 1174.4 99.421L1146.78 51.5929ZM1174.4 103.021C1174.63 103.122 1174.88 103.178 1175.14 103.185C1175.62 103.182 1176.07 103.007 1176.43 102.691C1176.78 102.375 1177.01 101.941 1177.06 101.47L1232.33 101.47L1259.95 149.325C1259.72 149.502 1259.52 149.731 1259.38 149.993C1259.25 150.256 1259.17 150.546 1259.16 150.842C1259.17 151.144 1259.24 151.441 1259.38 151.709C1259.52 151.978 1259.71 152.209 1259.96 152.386L1241.83 183.781L1232.33 200.247L1177.06 200.247C1177.01 199.778 1176.78 199.345 1176.43 199.03C1176.08 198.715 1175.63 198.538 1175.15 198.533C1174.89 198.531 1174.64 198.584 1174.4 198.69L1156.29 167.321L1146.78 150.856L1174.4 103.021ZM1060.82 200.49L1088.43 152.655C1088.67 152.762 1088.93 152.815 1089.19 152.813C1089.66 152.807 1090.12 152.63 1090.47 152.315C1090.82 152 1091.05 151.567 1091.1 151.098L1146.36 151.098L1165.37 184.024L1173.99 198.959C1173.75 199.135 1173.55 199.364 1173.41 199.63C1173.27 199.896 1173.2 200.191 1173.2 200.49C1173.2 200.789 1173.27 201.083 1173.41 201.348C1173.55 201.613 1173.75 201.841 1173.99 202.014L1146.36 249.881L1091.1 249.881C1091.05 249.412 1090.82 248.98 1090.47 248.665C1090.12 248.349 1089.66 248.172 1089.19 248.167C1088.93 248.165 1088.67 248.219 1088.43 248.325L1060.82 200.49ZM1088.43 251.924C1088.71 252.044 1089.01 252.097 1089.31 252.079C1089.61 252.061 1089.9 251.973 1090.16 251.821C1090.42 251.67 1090.64 251.459 1090.8 251.207C1090.97 250.954 1091.07 250.667 1091.1 250.368L1146.36 250.368L1173.99 298.222C1173.75 298.395 1173.55 298.624 1173.41 298.89C1173.27 299.157 1173.2 299.452 1173.2 299.752C1173.2 300.053 1173.27 300.348 1173.41 300.615C1173.55 300.881 1173.75 301.11 1173.99 301.283L1146.36 349.144L1091.1 349.144C1091.07 348.846 1090.96 348.559 1090.8 348.308C1090.64 348.056 1090.42 347.846 1090.16 347.694C1089.9 347.543 1089.61 347.453 1089.31 347.434C1089.01 347.414 1088.71 347.465 1088.43 347.581L1070.32 316.219L1060.82 299.753L1088.43 251.924ZM1060.39 300.002L1079.4 332.921L1088.03 347.857C1087.78 348.029 1087.58 348.259 1087.44 348.525C1087.31 348.791 1087.23 349.087 1087.23 349.387C1087.23 349.687 1087.31 349.983 1087.44 350.25C1087.58 350.516 1087.78 350.745 1088.03 350.918L1060.39 398.779L1005.13 398.779C1005.1 398.481 1005 398.194 1004.83 397.943C1004.67 397.691 1004.45 397.481 1004.19 397.329C1003.93 397.177 1003.64 397.088 1003.34 397.068C1003.04 397.049 1002.74 397.099 1002.47 397.216L974.848 349.381L993.856 316.461L1003.37 300.002L1060.39 300.002ZM889.766 202.014C890.012 201.842 890.212 201.613 890.351 201.347C890.489 201.081 890.561 200.786 890.561 200.486C890.561 200.187 890.489 199.892 890.351 199.626C890.212 199.36 890.012 199.131 889.766 198.959L917.405 151.098L972.661 151.098C972.714 151.568 972.937 152.001 973.288 152.317C973.639 152.633 974.094 152.81 974.566 152.813C974.828 152.814 975.088 152.761 975.328 152.655L1002.94 200.484L975.328 248.325C975.088 248.22 974.828 248.166 974.566 248.167C974.094 248.171 973.64 248.348 973.289 248.664C972.938 248.98 972.715 249.413 972.661 249.881L917.405 249.881L889.766 202.014ZM917.405 250.368L972.661 250.368C972.715 250.837 972.938 251.27 973.289 251.585C973.64 251.901 974.094 252.078 974.566 252.082C974.828 252.081 975.087 252.027 975.328 251.924L1002.94 299.753L983.938 332.678L974.421 349.144L919.165 349.144C919.131 348.846 919.029 348.56 918.865 348.308C918.702 348.056 918.482 347.846 918.223 347.695C917.964 347.543 917.673 347.454 917.374 347.434C917.074 347.414 916.774 347.465 916.498 347.581L898.39 316.219L888.886 299.753L917.405 250.368ZM888.465 300.002L907.467 332.921L916.097 347.857C915.852 348.029 915.651 348.259 915.513 348.525C915.375 348.791 915.303 349.087 915.303 349.387C915.303 349.687 915.375 349.983 915.513 350.249C915.651 350.516 915.852 350.745 916.097 350.918L888.465 398.779L833.196 398.779C833.143 398.309 832.92 397.876 832.569 397.56C832.218 397.244 831.764 397.068 831.291 397.064C831.032 397.063 830.774 397.114 830.535 397.216L802.917 349.381L821.931 316.461L831.435 300.002L888.465 300.002ZM831.009 299.753L812.001 332.678L802.49 349.144L747.227 349.144C747.173 348.675 746.95 348.242 746.599 347.926C746.248 347.611 745.794 347.434 745.322 347.43C745.062 347.428 744.805 347.48 744.567 347.581L716.948 299.753L745.467 250.368L800.723 250.368C800.778 250.836 801.002 251.268 801.353 251.584C801.703 251.899 802.156 252.076 802.628 252.082C802.89 252.082 803.149 252.028 803.39 251.924L831.009 299.753ZM717.828 198.933L745.467 151.079L802.497 151.079L830.122 198.933C829.881 199.108 829.684 199.337 829.548 199.602C829.411 199.867 829.337 200.159 829.333 200.457C829.337 200.757 829.41 201.052 829.547 201.318C829.684 201.585 829.881 201.816 830.122 201.994L803.377 248.318C803.141 248.217 802.885 248.165 802.628 248.167C802.162 248.17 801.714 248.343 801.366 248.652C801.018 248.961 800.794 249.386 800.737 249.848L745.467 249.848L726.459 216.923L717.828 201.994C718.072 201.818 718.272 201.588 718.41 201.321C718.548 201.054 718.621 200.758 718.623 200.457C718.621 200.158 718.548 199.864 718.409 199.599C718.271 199.334 718.072 199.106 717.828 198.933V198.933ZM714.761 200.707C714.796 201.004 714.899 201.29 715.063 201.54C715.227 201.791 715.447 202 715.706 202.151C715.964 202.302 716.255 202.391 716.554 202.41C716.853 202.43 717.152 202.379 717.428 202.263L735.535 233.632L745.046 250.092L716.521 299.483L661.265 299.483C661.209 299.015 660.984 298.582 660.632 298.268C660.28 297.953 659.825 297.778 659.353 297.776C659.096 297.772 658.84 297.823 658.605 297.927L630.986 250.092L649.994 217.173L659.505 200.707L714.761 200.707ZM545.017 101.195L572.635 53.3663C572.911 53.4856 573.211 53.5383 573.511 53.5203C573.811 53.5022 574.103 53.4138 574.362 53.2623C574.622 53.1107 574.842 52.9003 575.005 52.6479C575.169 52.3955 575.27 52.1082 575.302 51.8094L630.559 51.8094L659.078 101.195L631.465 149.029C631.222 148.926 630.961 148.873 630.697 148.872C630.225 148.876 629.771 149.053 629.42 149.369C629.07 149.685 628.846 150.118 628.793 150.586L573.529 150.586L545.017 101.195ZM545.897 198.933L573.529 151.079L628.793 151.079C628.847 151.547 629.071 151.98 629.422 152.295C629.772 152.611 630.226 152.788 630.697 152.793C630.961 152.789 631.221 152.735 631.465 152.635L659.077 200.457L640.069 233.389L630.559 249.848L573.529 249.848L554.521 216.923L545.897 201.987C546.141 201.814 546.34 201.585 546.477 201.319C546.614 201.054 546.685 200.759 546.685 200.46C546.685 200.161 546.614 199.867 546.477 199.601C546.34 199.336 546.141 199.107 545.897 198.933L545.897 198.933ZM459.054 250.092L487.566 200.707L542.823 200.707C542.878 201.175 543.101 201.607 543.452 201.921C543.803 202.236 544.257 202.411 544.728 202.414C544.992 202.416 545.253 202.364 545.497 202.263L563.605 233.632L573.109 250.092L544.59 299.483L489.333 299.483C489.277 299.015 489.051 298.583 488.7 298.269C488.348 297.955 487.894 297.779 487.422 297.775C487.162 297.772 486.905 297.823 486.667 297.927L459.054 250.092ZM486.667 301.532C486.907 301.63 487.163 301.681 487.422 301.684C487.894 301.68 488.348 301.504 488.699 301.19C489.051 300.876 489.276 300.444 489.333 299.976L544.59 299.976L572.222 347.824C571.981 348.002 571.784 348.234 571.646 348.5C571.509 348.766 571.434 349.061 571.427 349.361C571.431 349.66 571.505 349.954 571.643 350.22C571.781 350.486 571.979 350.716 572.222 350.891L544.59 398.746L489.333 398.746C489.299 398.448 489.195 398.163 489.031 397.912C488.867 397.661 488.647 397.452 488.389 397.301C488.13 397.15 487.84 397.061 487.541 397.042C487.242 397.023 486.943 397.073 486.666 397.189L468.558 365.82L459.054 349.36L486.667 301.532ZM401.46 351.318C401.932 351.313 402.387 351.136 402.738 350.821C403.09 350.505 403.315 350.073 403.371 349.604L458.628 349.604L477.635 382.529L486.26 397.458C486.014 397.632 485.814 397.862 485.675 398.128C485.537 398.395 485.465 398.692 485.465 398.992C485.465 399.293 485.537 399.589 485.675 399.856C485.814 400.123 486.014 400.353 486.26 400.526L459.528 446.817C459.285 446.721 459.027 446.672 458.766 446.673C458.295 446.678 457.843 446.854 457.492 447.168C457.142 447.482 456.917 447.913 456.861 448.38L401.605 448.38L373.086 398.988L392.094 366.07L400.705 351.167C400.944 351.265 401.201 351.317 401.46 351.318V351.318ZM287.124 250.092L314.735 202.263C315.011 202.382 315.31 202.435 315.61 202.418C315.909 202.4 316.201 202.312 316.46 202.162C316.719 202.011 316.94 201.801 317.104 201.55C317.267 201.298 317.369 201.012 317.402 200.713L372.659 200.713L400.297 248.561C400.052 248.734 399.852 248.963 399.713 249.229C399.575 249.496 399.503 249.791 399.503 250.091C399.503 250.392 399.575 250.687 399.713 250.954C399.852 251.22 400.052 251.449 400.297 251.622L372.659 299.483L315.635 299.483L287.124 250.092ZM288.003 347.83L315.635 299.976L372.659 299.976L400.297 347.824C400.055 348.001 399.857 348.232 399.719 348.499C399.581 348.765 399.507 349.06 399.503 349.361C399.505 349.66 399.579 349.955 399.717 350.221C399.855 350.487 400.054 350.717 400.297 350.891L382.169 382.28L372.659 398.746L315.635 398.746L296.628 365.82L288.003 350.891C288.249 350.719 288.45 350.49 288.588 350.223C288.726 349.957 288.798 349.661 288.798 349.361C288.798 349.061 288.726 348.765 288.588 348.499C288.45 348.232 288.249 348.003 288.003 347.83L288.003 347.83ZM202.035 397.458L229.666 349.604L284.93 349.604C284.985 350.073 285.21 350.507 285.562 350.822C285.914 351.138 286.369 351.314 286.841 351.318C287.1 351.317 287.357 351.265 287.597 351.167L305.705 382.53L315.209 398.989L287.597 446.824C287.358 446.723 287.101 446.671 286.841 446.673C286.369 446.674 285.914 446.849 285.561 447.164C285.209 447.478 284.985 447.911 284.93 448.38L229.666 448.38L210.658 415.455L202.035 400.526C202.28 400.353 202.481 400.123 202.619 399.856C202.757 399.589 202.83 399.293 202.83 398.992C202.83 398.692 202.757 398.395 202.619 398.128C202.481 397.861 202.28 397.632 202.035 397.458L202.035 397.458ZM198.961 399.239C199.016 399.706 199.24 400.138 199.591 400.452C199.942 400.767 200.395 400.942 200.866 400.946C201.129 400.948 201.391 400.896 201.634 400.795L219.742 432.164L229.246 448.623L200.728 498.008L145.465 498.008C145.409 497.541 145.185 497.109 144.834 496.795C144.484 496.481 144.031 496.305 143.56 496.301C143.3 496.299 143.043 496.351 142.805 496.452L115.186 448.623L134.194 415.704L143.698 399.239L198.961 399.239ZM30.0974 397.458L57.7283 349.604L112.998 349.604C113.052 350.073 113.276 350.506 113.627 350.821C113.977 351.137 114.431 351.314 114.903 351.318C115.164 351.316 115.423 351.265 115.665 351.167L143.271 398.989L124.263 431.915L114.759 448.38L57.7283 448.38L30.0973 400.526C30.341 400.351 30.5396 400.121 30.6765 399.854C30.8135 399.587 30.8849 399.292 30.8849 398.992C30.8849 398.692 30.8135 398.397 30.6765 398.13C30.5396 397.863 30.341 397.633 30.0973 397.458L30.0974 397.458Z" fill="#071221"/>
</svg>
